<svg
  xmlns="http://www.w3.org/2000/svg"
  width="16"
  height="16"
  viewBox="0 0 20 20"
>
  <title>Электронная почта</title>
  <path
    d="M14.6 12.2c0 .8.2 1 1 1 1.3 0 2.2-1.6 2.2-4.6C17.8 4 14.5 2 10.4 2c-4.3 0-8 2.8-8 8s3.3 8 8.4 8c1.8 0 3-.2 4.7-.8l.4 1.6c-1.8.6-3.7.8-5.2.8C4 19.6.4 16 .4 10 .4 4.4 4.6.5 10.4.5c6 0 9.2 3.6 9.2 8 0 3.8-1.2 6.6-5 6.6-1.6 0-2.7-.6-2.8-2-.4 1.5-1.6 2-3 2-2.2 0-4-1.6-4-4.8C4.8 7 6.4 5 9 5c1.6 0 2.5.5 3 1.4l.6-1.3h2v7.2zm-3-3.2c0-1.3-1-2-1.7-2-1 0-2 1-2 3 0 1.6.7 2.6 2 2.6.6 0 1.7-.5 1.7-2V9z"
    fill="#EF4444"
  />
</svg>
