<svg viewBox="0 0 20 20" xmlns="http://www.w3.org/2000/svg">
  <title>tools</title>
  <path 
    d="M3 7C4 6 5 6.6 6 8c0 0 0-.2.2-.2l1.6-1.4V6L7 5.3c-1.8-2.4 5-4 4-4H8c-1.3 0-3 1.3-3.7 2L2.8 4c-.3.3 0 1-.6 1.4-.6.5-1 0-1.3.4l-.8.6C0 6.6 0 7 .2 7l1.3 1.6s.4.2.6 0c.2 0 .7-.5.8-.5 0 0 0-.8.3-1zm5.8.4h-.4L7 8.6V9l8.3 9.5c.2.2.5.2.7 0l1-.8c.2-.2.2-.5 0-.7L9 7.4zm11-4c0-.5-.2-.4-.4-.2 0 .2-.7 1-1 1.5-.2.4-.8 1.2-2 .4-1-.7-.6-1.3-.4-1.6.2-.4.8-1.5 1-1.6 0-.2 0-.6-.5-.4-.3.2-2.5 1-2.8 2.3C13.4 5 14 6 13 7.2l-1.5 1.4L13 10l1.5-1.4c.4-.4 1.3-.8 2-.6 1.6.3 2.5-.3 3-1.3.6-1 .5-2.8.4-3.3zM3 17c-.3.3-.3.6 0 .8l1 1h.6l5-5L7.7 12l-5 5z"
    fill="#ef4444"
  />
</svg>