<svg
  xmlns="http://www.w3.org/2000/svg"
  height="60.9"
  width="127.6"
  viewBox="0 0 127.6 60.9"
>
  <title>Автокран</title>
  <path
    d="M7 27.3L6 4H6l1.4 23.3H7M7.8 27.2L6.8 4H7L8 27H8M10.5 27.3h-.3L11.5 4h.3l-1.3 23.3M9.7 27.2h-.3l1-23.3h.4L9.8 27"
    fill="#657686"
  />
  <path
    d="M18 9.2c-.2.8-1 1.3-2 1L9.4 8.5c-1-.2-1.3-1-1-2l.7-3c.2-.7 1-1.2 2-1l6.8 2c.8 0 1.3 1 1 1.8l-.8 3"
    fill="#3b393d"
  />
  <path
    d="M16.6 9.8h-.3l-7-2c-.4 0-.7-.6-.6-1l1-3c0-.5.3-.8.7-.8h.3l7 2c.4 0 .7.5.6 1l-.8 3c0 .4-.5.7-1 .8"
    fill="#505256"
  />
  <path d="M110.2 26.5L10 .5V.2l100.3 26v.3" fill="#657686" />
  <path
    d="M105.2 30c0-2.2 1.8-4 4-4 2.3 0 4 1.8 4 4 0 2.3-1.7 4-4 4-2.2 0-4-1.7-4-4"
    fill="#505256"
  />
  <path
    d="M105.6 30c0-2 1.6-3.7 3.7-3.7S113 28 113 30s-1.7 3.7-3.7 3.7-3.7-1.6-3.7-3.7"
    fill="#f9db0c"
  />
  <path
    d="M106.5 30c0-1.5 1.2-2.7 2.8-2.7s2.7 1.2 2.7 2.7c0 1.6-1.2 2.8-2.7 2.8s-2.8-1.2-2.8-2.8"
    fill="#fbc610"
  />
  <path d="M107.3 30c0-1 1-2 2-2s2 1 2 2-1 2-2 2-2-1-2-2" fill="#e9ab10" />
  <path d="M54.3 24.5l13 4.7.7-2L55.5 23l-1.2 1.7" fill="#b8b9ba" />
  <path d="M54.5 24.2L67 28.6l.3-1.2-12-4.3-.8 1.2" fill="#d0d1d0" />
  <path d="M54.8 24l11.7 4v-.4l-11.5-4-.2.3" fill="#e6e6e6" />
  <path d="M96.8 40.3l2-2.7L66.4 26l-1 3 31.3 11.3" fill="#211c1d" />
  <path d="M97 39.8l1.3-1.7-32-11.4-.7 2L97 39.7" fill="#3b393d" />
  <path d="M97.5 39.3l.5-.7-32-11.4-.2.8 31.7 11.3" fill="#505256" />
  <path d="M47.6 20l.2-.5 10.3 3-1.7 4.2-8.7-6.8" fill="#d69617" />
  <path d="M47.8 19.7l8.4 6.7 1.6-3.7-10-3" fill="#fbc610" />
  <path d="M49.6 20.8L57 23l-1.2 2.7-6.2-5" fill="#f9db0c" />
  <path d="M20.8 12l2-7 82.5 21 6 5.4L105 37 20.7 12" fill="#d69617" />
  <path d="M104.8 37L21 11.6l2-6.4L105.2 26l5.8 5.4-6.2 5.5" fill="#ecae0f" />
  <path d="M21.2 10.7l1.3-4.5 82.2 21 4.8 4.2-5 4.3-83.3-25" fill="#fbc610" />
  <path d="M21.6 10l.7-3 82 21 3.8 3.4-3.6 3.3L21.6 10" fill="#f9db0c" />
  <path
    d="M1 12c0-.6.8-1.2 1.6-1.2.7 0 1.3.7 1.3 1.5 0 .7-.8 1.3-1.6 1.3C1.7 13.6 1 13 1 12"
    fill="#505256"
  />
  <path
    d="M1 16v-4.2-.5l1-1.6C2.4 9 3 8 3.3 7.3 4.5 5 5.7 2.8 6.6 1.5 7.4.3 8.2.2 8.2.2v.2S7.6.6 7 1.6C6 3 4.7 5.2 3.4 7.6l-2 3.7-.2.4V16H1"
    fill="#657686"
  />
  <path d="M3 14.3C1.6 14.3.6 13 .7 11.6l2.4.3-.3 2.3" fill="#e8a611" />
  <path d="M2.6 14c-.8-.2-1.5-1-1.5-2L3 12 2.6 14" fill="#f7cc08" />
  <path
    d="M5.8 3.3c0-2 1.7-3.4 3.6-3.3 2 0 3.3 1.7 3.2 3.5 0 2-1.6 3.4-3.5 3.3C7.3 6.8 6 5 6 3.3"
    fill="#505256"
  />
  <path
    d="M9.2 6.4c-1.7 0-3-1.5-3-3 .2-1.8 1.6-3 3.2-3s3 1.5 2.8 3c0 1.8-1.4 3-3 3"
    fill="#3b393d"
  />
  <path
    d="M9.2 5.8C8 5.8 7 4.6 7 3.3S8 1 9.3 1c1.3 0 2.3 1.2 2.2 2.5 0 1.3-1 2.3-2.4 2.3"
    fill="#211c1d"
  />
  <path
    d="M12.6 2.2C11.4 1.6 9 .6 8.4.8c-.8.3-1.3 2-1.5 3l-1 7.6c0 .3-1 0-1.5.5l-1-.2c-.3 0-.5 0-.6.4L2.3 14c0 .3.2.6.5.6l5.2 1c3 .2 3.6-4.4 4-7 .4-1.2 1.8-1.6 2.3-4 .2-1-.8-1.8-2-2.4"
    fill="#e8a611"
  />
  <path
    d="M8.4 15.2l-5.5-1h-.2l.4-2h1.5c.2-.3.6-.3 1-.3 0 0 .6-.2.6-.6l.5-4C7 6 7 4.7 7.3 4c.2-1.5.7-2.7 1.3-3l3.8 1.5c1 .4 2 1.2 1.8 2-.3 1.4-1 2-1.4 2.6-.3.5-.7 1-.8 1.5 0 .3 0 .6-.2 1-.5 2.5-1 5.8-3.4 5.7"
    fill="#f7cc08"
  />
  <path
    d="M7.3 4c0 .2 0 .4-.2.7l4.7 5.4v-.5L12 9 7.2 3.6V4zm.6-2l4.6 5.4s0-.2.2-.3l.3-.3-4.5-5.5c-.2 0-.4.3-.6.7zM6.7 7.4V8l4 5c.3-.3.4-.6.5-1L7 7l-.2.5zm-.5 4l3 3.5c.4 0 .6-.3.8-.5l-3.5-4.3c0 .4 0 .8-.2 1.2zM14 4l-1-1c0-.3-.4-.4-.6-.5L11.2 2 14 5.2v-.7c.2-.2.2-.3 0-.5zM3 14v.3h1l-1-.8v.6zm2-2v.3h-1L6 14.7l1.4.2L5 12h-.2"
    fill="#ea1d27"
  />
  <path d="M1.3 16H1 1V15s0-.2.3-.2c.2 0 .4 0 .4.2v.7" fill="#f7cc08" />
  <path
    d="M9 38.3c-1 0-2-.8-2-1.8 0-.8.7-1.6 1.5-1.8v-2h1v3H9h-.4c-.5 0-.8.3-.8.8s.4 1 1 1c.4 0 .8-.3 1-.7 0-.5.2-.8.3-.8h.2c0 .3.2.8 0 1.3 0 .6-.8 1-1.5 1"
    fill="#3b393d"
  />
  <path
    d="M9 38c-1 0-1.7-.6-1.7-1.5 0-.8.6-1.5 1.3-1.6v-2h.6v2.5h-.4c-.6 0-1 .4-1 1s.5 1 1 1c.7 0 1-.2 1.3-.6v-.2c.2 0 .2-.4.3-.5 0 0 .2.4 0 1 0 .5-.7.8-1.3.8"
    fill="#65686d"
  />
  <path
    d="M9 38c-1 0-1.6-.7-1.6-1.5 0-.7.5-1.4 1.2-1.5h.2v-2H9v2.3h-.2c-.7 0-1 .5-1 1.2s.5 1.2 1 1.2c.7 0 1-.2 1.4-.6v.2c0 .5-.6.8-1.3.8"
    fill="#7a7b7f"
  />
  <path
    d="M8 33.3c-.2 0-.5-.2-.6-.6l-.7-3.5.3-1.8c0-.3.4-.6.7-.6h2.5c.3 0 .5.2.6.6l.4 1.8-.7 3.5c0 .4-.3.6-.7.6H8"
    fill="#e8a611"
  />
  <path
    d="M10.3 32.7c0 .2-.2.5-.5.5H8c-.2 0-.3-.2-.4-.5l-.8-3.5.4-1.7c0-.3.2-.5.5-.5h2.5c.2 0 .4.2.5.5l.4 1.7-.7 3.5"
    fill="#f7cc08"
  />
  <path
    d="M7 28.3l3.6 3v-.5l-3.5-3v.5zm3.7-.8c0-.3-.3-.5-.5-.5H10l.7.7v-.2zm-3.4-.3l3.5 3s0-.3.2-.4L7.7 27c-.2 0-.3 0-.4.2zM7 29l-.2.2 3.6 3.2V32L7 28.7zm4 0v-.5L9 27h-.6l2.5 2zm-3.5 3.4l1 .8h.7l-2-1.6.3.8zM7.2 31L10 33l.3-.3L7 30c0 .3 0 .6.2 1"
    fill="#ea1d27"
  />
  <path
    d="M8.4 28.6c0-.3.2-.5.5-.5.2 0 .5.3.5.6s-.3.6-.6.6c-.4 0-.6-.3-.6-.6"
    fill="#3b393d"
  />
  <path
    d="M8.4 28.6c0-.3.3-.5.5-.5s.4.3.4.6-.2.5-.5.5-.6 0-.6-.4M1 21.4c-.3 0-.5-.2-.5-.4 0-.3.2-.5.5-.5s.5.2.5.5c0 .2-.3.4-.5.4zm.2-1.2v-2H1 .8v2c-.4 0-.6.4-.7.8 0 .4.5.8 1 .8.4 0 .8-.4.8-.8s-.2-.8-.6-.8"
    fill="#505256"
  />
  <path
    d="M1 20.4c-.3 0-.6.2-.6.5s.3.5.6.5.5-.2.5-.5-.2-.6-.5-.6zm0 1.3c-.5 0-.8-.3-.8-.8 0-.4.3-.7.6-.8v-2h.4v2c.3 0 .6.4.6.8s-.4.7-.8.7"
    fill="#65686d"
  />
  <path
    d="M1 20.3c-.4 0-.6.3-.6.7 0 .3.2.6.6.6.3 0 .6-.3.6-.6 0-.4-.3-.7-.6-.7zm0 1.4c-.4 0-.7-.3-.7-.7 0-.4.2-.7.5-.7V20v-1.7H1v2h.2c.3 0 .5.4.5.8s-.3.7-.7.7"
    fill="#7a7b7f"
  />
  <path
    d="M1 16.4v0zm.2 0s0-.2-.2-.2c0 0-.2 0-.2.2s0 .3.2.3v0c.2 0 .2 0 .2-.3"
    fill="#505256"
  />
  <path
    d="M1.2 16.4H1v.2s.2 0 .2-.2zm0 0V17.3H1v-.6l-.2-.3s0-.2.2-.2c0 0 .2 0 .2.2"
    fill="#65686d"
  />
  <path
    d="M1.2 16.4s0-.2-.2-.2v.4s.2 0 .2-.2zm0 0v.2H1V16.8l-.2-.3s0-.2.2-.2c0 0 .2 0 .2.2"
    fill="#7a7b7f"
  />
  <path
    d="M.7 19.6c-.4 0-.7-.2-.7-.6v-2c0-.3.3-.4.7-.4h.6c.5 0 .7.2.7.5v2c0 .4-.3.6-.7.6H.7"
    fill="#eba90f"
  />
  <path
    d="M0 19c0 .4.3.5.7.5h.6c.4 0 .6 0 .7-.4v-2c0-.2-.3-.4-.7-.4H.7c-.3 0-.6 0-.6.5v2"
    fill="#f7cc08"
  />
  <path
    d="M1.2 16.6H.3L2 18V17l-.8-.6zM.2 19c0 .3 0 .5.5.5h.6l-1.2-1v.5zm0-1L1.8 19v-.7l-2-1.3v.7"
    fill="#d71e25"
  />
  <path
    d="M1.2 16.6H.7v.4l.8.6V17l-.3-.4zm-.6 1.7l.8.6V18l-.8-.6v.7zm0 1.2h.7L.7 19v.5"
    fill="#ee232c"
  />
  <path
    d="M19.2 12.7c-.4-.2-.6-.5-.5-1l2-7.4c.2-.4.6-.6 1-.5l.7.2c.5 0 .7.5.6 1l-2.2 7.4c0 .4-.5.6-1 .5l-.6-.3"
    fill="#3b393d"
  />
  <path
    d="M20.7 12.4c0 .3-.4.5-.8.4l-.7-.2c-.4 0-.6-.4-.5-.8l2-7.5c.2-.4.6-.5 1-.4h.6c.4.2.6.5.5 1l-2.3 7.4"
    fill="#505256"
  />
  <path
    d="M19.3 12.5s-.4-.2-.3-.5l2.2-7.8c0-.3.4-.2.5-.2l.7.2s.4.2.3.5l-2.2 7.7c0 .4-.5.3-.5.3l-.7-.2"
    fill="#3b393d"
  />
  <path d="M19.4 12.2s-.3 0-.2-.3l2-7.6h1.1l.2.3-2.2 7.6H19.4" fill="#505256" />
  <path
    d="M22.2 6.2l-1.4-.4.2-.4 1.3.3v.5M21.4 8.7L20 8.3l.2-.4 1.3.2v.5M20.7 11.4l-1.4-.4.2-.4 1.3.4v.4M21 6.6c0-.2.2-.3.4-.2l.2.3c0 .2-.2.3-.4.2l-.2-.4M21.5 5c0-.2.2-.3.3-.2.2 0 .3 0 .2.3 0 .2-.2.3-.3.3-.2 0-.3-.2-.2-.4M17.3 12c-.4-.2-.6-.5-.5-1l2-7c0-.2.4-.4.8-.3l.6.2c.4 0 .6.3.5.7l-2 7c0 .3-.4.5-.8.4h-.7"
    fill="#3b393d"
  />
  <path
    d="M18.7 11.7c0 .3-.5.4-.8.3l-.7-.2c-.3 0-.6-.3-.5-.7l2-6.8c0-.4.4-.5.8-.4l.6.2c.3 0 .5.3.5.7l-2 7"
    fill="#505256"
  />
  <path
    d="M17.3 11.7s-.4 0-.3-.4L19 4c0-.2.5 0 .5 0h.7s.4.2.3.5l-2 7.2c-.2.3-.5.2-.6.2l-.7-.3"
    fill="#3b393d"
  />
  <path
    d="M17.4 11.5s-.2 0-.2-.3l2-7h.3l.6.2c.2 0 .3 0 .3.2l-2 7H17.4"
    fill="#505256"
  />
  <path
    d="M20 6l-1.3-.4.2-.4 1 .3V6M19.3 8.2L18 8l.2-.5 1.2.3v.4M18.6 10.8l-1.2-.4V10l1.3.3v.5M19 6.3c0-.2 0-.2.2-.2s.3.3.2.4c0 .2-.2.2-.3.2v-.3M19.3 4.8c0-.2.2-.2.4-.2 0 0 .2.2 0 .3h-.2s-.2 0-.2-.2M15.5 11c-.4 0-.6-.4-.5-.7L16.8 4c0-.4.5-.6.8-.5l.6.2c.4 0 .6.4.5.7l-2 6.4c0 .3-.3.5-.6.4l-.5-.2"
    fill="#3b393d"
  />
  <path
    d="M16.8 10.8c0 .3-.4.4-.7.3h-.5c-.3 0-.5-.4-.4-.7L17 4c0-.4.3-.5.6-.4l.6.2c.3 0 .5.3.4.6l-1.8 6.4"
    fill="#505256"
  />
  <path
    d="M15.5 10.8s-.3 0-.2-.3L17 4c.2-.4.5-.3.6-.3l.5.2c.2 0 .5 0 .4.3l-1.8 6.5c0 .3-.4.2-.5.2l-.5-.2"
    fill="#3b393d"
  />
  <path
    d="M15.6 10.6s-.2 0-.2-.2l2-6.4h.7s.3.2.2.3l-1.8 6.4h-.8"
    fill="#505256"
  />
  <path
    d="M18 5.5l-1-.3v-.4l1 .4v.3M17.3 7.6l-1-.3V7l1 .3v.3M16.7 10l-1-.4v-.3l1 .3v.4M17 6c0-.3.2-.3.3-.3l.2.3-.3.2L17 6M17.4 4.5l.3-.2s.2.2 0 .3v.2c-.3 0-.3-.2-.3-.3M14 10.3c-.5 0-.7-.4-.6-.7l1.7-6c.2-.2.5-.4.8-.3l.6.2c.3 0 .5.3.4.6L15 10c0 .4-.3.5-.6.4H14"
    fill="#3b393d"
  />
  <path
    d="M15 10c0 .3-.3.4-.6.3H14c-.4-.2-.6-.4-.5-.7l1.7-6c0-.2.3-.3.6-.2h.5c.3.2.5.4.4.7L15 10"
    fill="#505256"
  />
  <path
    d="M14 10c-.2 0-.4 0-.4-.3l1.8-6c0-.3.3-.2.4-.2h.5s.3.2.3.5l-1.8 6c0 .3-.3.3-.4.2H14"
    fill="#3b393d"
  />
  <path
    d="M14 10c0-.2-.2-.2-.2-.3l1.7-6h.7c0 .2.2.2.2.3l-1.7 6H14"
    fill="#505256"
  />
  <path
    d="M16 5.2L15 5l.2-.5 1 .3v.4M15.6 7l-1-.2v-.3l1 .3V7M15 9.3L14 9v-.4l1 .3v.3M15.3 5.5s0-.2.2-.2.2.2.2.3l-.3.2s-.2-.2 0-.3M15.6 4.2L16 4v.3s0 .2-.2.2-.2-.2-.2-.3"
    fill="#3b393d"
  />
  <path
    d="M65 22c-1 .2-1.7-.5-1.8-1.4 0-1 .6-1.7 1.5-1.8.7 0 1.3.3 1.6 1 .5 0 .8.2 1 .5.3.2.5.5.4.8 0 .5-.5.8-1 .8h-.8l-1 .3"
    fill="#ecae0f"
  />
  <path
    d="M66.3 20c-.3-.7-1-1-1.6-1-.8 0-1.4.8-1.3 1.6 0 .8.8 1.4 1.6 1.3.3 0 .6-.2.8-.4 1 .2 1.6 0 1.7-.5.2-.4-.4-1-1.2-1"
    fill="#fbc610"
  />
  <path
    d="M65 21.5c-.6 0-1-.4-1.2-1 0-.5.4-1 1-1 .4 0 .8 0 1 .5v.3h.4c.3 0 .6.2.8.4v.3s0 .2-.4.2H65.7l-.7.3M32.4 12c0-1 1-2.3 2.2-2.4 1.2 0 2.4 1 2.5 2 .2 1.4-.8 2.5-2 2.7-1.3 0-2.4-1-2.6-2.2"
    fill="#d69617"
  />
  <path
    d="M33.3 12c0-.7.5-1.5 1.3-1.5s1.6.5 1.6 1.3-.5 1.5-1.3 1.6c-1 0-1.6-.5-1.7-1.3"
    fill="#f6c709"
  />
  <path
    d="M34 12c0-.4.3-.7.7-.8.4 0 .7.3.8.7 0 .3-.3.6-.7.6-.4 0-.7-.2-.7-.6"
    fill="#d69617"
  />
  <path
    d="M35 14.8c-.2 0-.5-.2-.5-.5L34 9.6c0-.2.2-.5.5-.5.2 0 .4.3.5.6l.4 4.7c0 .2-.2.5-.4.5"
    fill="#9f691e"
  />
  <path
    d="M35.2 14.3c0 .2 0 .3-.2.4-.2 0-.3-.2-.3-.4l-.5-4.7c0-.2 0-.4.3-.4 0 0 .3.2.3.4l.4 4.7"
    fill="#ed9f10"
  />
  <path
    d="M54.6 24c0-.5.2-1 .7-1 .4 0 .8.3 1 .8 0 .4-.4.8-1 .8-.3 0-.7-.2-.7-.7"
    fill="#d69617"
  />
  <path
    d="M55.4 24.5c-.3 0-.7-.2-.7-.6 0-.5.2-.8.6-.8.4 0 .7.2.7.6 0 .3-.2.7-.6.7"
    fill="#fbc610"
  />
  <path
    d="M110.4 45c0 .7-.2 1.2-.7 1.2h-23c-.6 0-1-.5-1-1.2 0-.6.4-1.2 1-1.2h23c.5 0 .7.6.7 1.2"
    fill="#211c1d"
  />
  <path
    d="M86.6 46c-.5 0-.6-.6-.6-1s0-.8.6-.8h23c.3 0 .6 0 .6.8 0 1-.3 1-.5 1h-23"
    fill="#3b393d"
  />
  <path
    d="M86.6 45.6c-.3 0-.4-.4-.4-.6 0 0 0-.5.4-.5h23c.2 0 .4 0 .4.5 0 .6-.2.6-.3.6h-23"
    fill="#505256"
  />
  <path
    d="M86.3 45c0-.2 0-.5.3-.5s.4.3.4.6-.2.6-.4.6-.3-.3-.3-.6"
    fill="#65686d"
  />
  <path
    d="M86.3 45c0-.2 0-.4.3-.4.2 0 .3.2.3.4 0 .3-.2.5-.4.5s-.3-.2-.3-.5"
    fill="#7a7b7f"
  />
  <path d="M86.4 45s0-.3.2-.3.2.2.2.3l-.2.4-.2-.4" fill="#8b8f92" />
  <path
    d="M87 45c0-.2 0-.5.3-.5s.4.3.4.6-.2.6-.4.6-.3-.3-.3-.6"
    fill="#65686d"
  />
  <path
    d="M87 45c0-.2.2-.4.3-.4.2 0 .3.2.3.4 0 .3 0 .5-.3.5 0 0-.3-.2-.3-.5"
    fill="#7a7b7f"
  />
  <path d="M87 45l.3-.3.2.3-.2.4-.2-.4" fill="#8b8f92" />
  <path
    d="M87.7 45c0-.2 0-.5.3-.5s.4.3.4.6-.2.6-.4.6-.3-.3-.3-.6"
    fill="#65686d"
  />
  <path
    d="M87.8 45c0-.2 0-.4.2-.4s.3.2.3.4c0 .3 0 .5-.3.5 0 0-.2-.2-.2-.5"
    fill="#7a7b7f"
  />
  <path d="M87.8 45s0-.3.2-.3.3.2.3.3l-.3.4-.2-.4" fill="#8b8f92" />
  <path
    d="M88.4 45c0-.2.2-.5.4-.5s.3.3.3.6 0 .6-.2.6-.4-.3-.4-.6"
    fill="#65686d"
  />
  <path
    d="M88.5 45c0-.2 0-.4.3-.4l.2.4c0 .3 0 .5-.2.5s-.3-.2-.3-.5"
    fill="#7a7b7f"
  />
  <path d="M88.5 45s0-.3.3-.3.2.2.2.3l-.2.4-.3-.4" fill="#8b8f92" />
  <path
    d="M89 45c0-.2.3-.5.5-.5s.3.3.3.6 0 .6-.3.6c-.2 0-.4-.3-.4-.6"
    fill="#65686d"
  />
  <path
    d="M89.2 45c0-.2 0-.4.3-.4 0 0 .3.2.3.4 0 .3-.2.5-.3.5-.2 0-.3-.2-.3-.5"
    fill="#7a7b7f"
  />
  <path d="M89.3 45s0-.3.2-.3l.2.3-.2.4-.2-.4" fill="#8b8f92" />
  <path
    d="M89.8 45c0-.2.2-.5.4-.5s.4.3.4.6-.2.6-.4.6-.4-.3-.4-.6"
    fill="#65686d"
  />
  <path
    d="M90 45c0-.2 0-.4.2-.4s.3.2.3.4c0 .3 0 .5-.3.5s-.3-.2-.3-.5"
    fill="#7a7b7f"
  />
  <path d="M90 45s0-.3.2-.3l.2.3-.2.4-.2-.4" fill="#8b8f92" />
  <path
    d="M90.6 45c0-.2 0-.5.3-.5 0 0 .3.3.3.6s-.2.6-.4.6c-.3 0-.4-.3-.4-.6"
    fill="#65686d"
  />
  <path
    d="M90.6 45c0-.2.2-.4.3-.4l.2.4c0 .3 0 .5-.3.5-.2 0-.4-.2-.4-.5"
    fill="#7a7b7f"
  />
  <path d="M90.7 45s0-.3.2-.3v.7c-.2 0-.3-.2-.3-.4" fill="#8b8f92" />
  <path
    d="M91.3 45c0-.2 0-.5.3-.5s.4.3.4.6-.2.6-.4.6-.3-.3-.3-.6"
    fill="#65686d"
  />
  <path
    d="M91.4 45c0-.2 0-.4.2-.4s.3.2.3.4c0 .3-.2.5-.4.5s-.2-.2-.2-.5"
    fill="#7a7b7f"
  />
  <path d="M91.4 45s0-.3.2-.3.3.2.3.3l-.4.4-.2-.4" fill="#8b8f92" />
  <path
    d="M92 45c0-.2.2-.5.4-.5s.3.3.3.6 0 .6-.3.6c-.2 0-.4-.3-.4-.6"
    fill="#65686d"
  />
  <path
    d="M92 45c0-.2.2-.4.3-.4.2 0 .3.2.3.4 0 .3 0 .5-.3.5 0 0-.2-.2-.2-.5"
    fill="#7a7b7f"
  />
  <path d="M92 45s.2-.3.4-.3.2.2.2.3l-.2.4-.3-.4" fill="#8b8f92" />
  <path
    d="M92.7 45c0-.2.2-.5.4-.5s.4.3.4.6 0 .6-.3.6-.3-.3-.3-.6"
    fill="#65686d"
  />
  <path
    d="M92.8 45c0-.2 0-.4.3-.4.2 0 .4.2.4.4 0 .3-.2.5-.3.5 0 0-.2-.2-.2-.5"
    fill="#7a7b7f"
  />
  <path d="M93 45v-.3l.3.3-.2.4V45" fill="#8b8f92" />
  <path
    d="M93.4 45c0-.2.2-.5.4-.5s.4.3.4.6-.2.6-.4.6-.4-.3-.4-.6"
    fill="#65686d"
  />
  <path
    d="M93.5 45c0-.2 0-.4.3-.4 0 0 .3.2.3.4 0 .3 0 .5-.2.5s-.3-.2-.3-.5"
    fill="#7a7b7f"
  />
  <path d="M93.6 45s0-.3.2-.3l.2.3-.2.4-.2-.4" fill="#8b8f92" />
  <path
    d="M94.2 45c0-.2 0-.5.3-.5s.4.3.4.6-.3.6-.5.6-.3-.3-.3-.6"
    fill="#65686d"
  />
  <path
    d="M94.2 45c0-.2.2-.4.3-.4s.3.2.3.4c0 .3 0 .5-.3.5s-.3-.2-.3-.5"
    fill="#7a7b7f"
  />
  <path d="M94.3 45s0-.3.2-.3.2.2.2.3l-.2.4-.2-.4" fill="#8b8f92" />
  <path
    d="M95 45c0-.2 0-.5.2-.5s.4.3.4.6-.2.6-.4.6-.3-.3-.3-.6"
    fill="#65686d"
  />
  <path
    d="M95 45c0-.2 0-.4.2-.4s.3.2.3.4c0 .3 0 .5-.3.5 0 0-.3-.2-.3-.5"
    fill="#7a7b7f"
  />
  <path d="M95 45s0-.3.2-.3.3.2.3.3l-.3.4-.2-.4" fill="#8b8f92" />
  <path
    d="M95.6 45c0-.2 0-.5.3-.5s.3.3.3.6-.2.6-.4.6-.4-.3-.4-.6"
    fill="#65686d"
  />
  <path
    d="M95.7 45c0-.2 0-.4.2-.4l.2.4c0 .3 0 .5-.3.5-.2 0-.3-.2-.3-.5"
    fill="#7a7b7f"
  />
  <path d="M95.7 45s0-.3.2-.3.2.2.2.3l-.3.4-.3-.4" fill="#8b8f92" />
  <path
    d="M96.3 45c0-.2.2-.5.4-.5s.3.3.3.6 0 .6-.3.6c-.2 0-.4-.3-.4-.6"
    fill="#65686d"
  />
  <path
    d="M96.4 45c0-.2 0-.4.3-.4l.2.4c0 .3-.2.5-.3.5-.2 0-.3-.2-.3-.5"
    fill="#7a7b7f"
  />
  <path d="M96.5 45s0-.3.2-.3l.2.3-.3.4-.2-.4" fill="#8b8f92" />
  <path
    d="M97 45c0-.2.2-.5.4-.5s.3.3.3.6 0 .6-.3.6c-.2 0-.4-.3-.4-.6"
    fill="#65686d"
  />
  <path
    d="M97 45c0-.2.2-.4.4-.4 0 0 .3.2.3.4 0 .3-.2.5-.3.5-.2 0-.3-.2-.3-.5"
    fill="#7a7b7f"
  />
  <path d="M97.2 45s0-.3.2-.3l.2.3-.2.4-.2-.4" fill="#8b8f92" />
  <path d="M97.8 45c0-.2 0-.5.3-.5s.5.3.5.6-.2.6-.4.6L98 45" fill="#65686d" />
  <path
    d="M97.8 45c0-.2 0-.4.3-.4s.4.2.4.4c0 .3 0 .5-.3.5 0 0-.2-.2-.2-.5"
    fill="#7a7b7f"
  />
  <path d="M98 45v-.3c.2 0 .3.2.3.3l-.2.4V45" fill="#8b8f92" />
  <path
    d="M98.5 45c0-.2 0-.5.3-.5s.4.3.4.6-.2.6-.4.6-.3-.3-.3-.6"
    fill="#65686d"
  />
  <path
    d="M98.5 45c0-.2.2-.4.3-.4.2 0 .3.2.3.4 0 .3 0 .5-.2.5 0 0-.3-.2-.3-.5"
    fill="#7a7b7f"
  />
  <path d="M98.6 45s0-.3.2-.3l.2.3-.2.4-.2-.4" fill="#8b8f92" />
  <path
    d="M99.2 45c0-.2 0-.5.3-.5s.4.3.4.6-.3.6-.5.6-.3-.3-.3-.6"
    fill="#65686d"
  />
  <path
    d="M99.3 45c0-.2 0-.4.2-.4s.3.2.3.4c0 .3 0 .5-.3.5 0 0-.2-.2-.2-.5"
    fill="#7a7b7f"
  />
  <path d="M99.3 45s0-.3.2-.3.3.2.3.3l-.3.4-.2-.4" fill="#8b8f92" />
  <path
    d="M100 45c0-.2 0-.5.3-.5.2 0 .3.3.3.6s0 .6-.3.6c-.2 0-.4-.3-.4-.6"
    fill="#65686d"
  />
  <path
    d="M100 45c0-.2 0-.4.3-.4 0 0 .3.2.3.4 0 .3-.2.5-.3.5-.2 0-.3-.2-.3-.5"
    fill="#7a7b7f"
  />
  <path d="M100 45s0-.3.3-.3l.2.3-.2.4c-.2 0-.3-.2-.3-.4" fill="#8b8f92" />
  <path
    d="M100.6 45c0-.2.2-.5.4-.5s.3.3.3.6 0 .6-.3.6c-.2 0-.4-.3-.4-.6"
    fill="#65686d"
  />
  <path
    d="M100.7 45c0-.2 0-.4.3-.4 0 0 .3.2.3.4 0 .3-.2.5-.3.5-.2 0-.3-.2-.3-.5"
    fill="#7a7b7f"
  />
  <path d="M100.8 45s0-.3.2-.3l.2.3-.2.4-.2-.4" fill="#8b8f92" />
  <path
    d="M101.3 45c0-.2.2-.5.4-.5s.4.3.4.6 0 .6-.3.6c-.2 0-.4-.3-.4-.6"
    fill="#65686d"
  />
  <path
    d="M101.4 45c0-.2 0-.4.3-.4.2 0 .3.2.3.4 0 .3 0 .5-.3.5-.2 0-.3-.2-.3-.5"
    fill="#7a7b7f"
  />
  <path d="M101.5 45s0-.3.2-.3l.2.3-.3.4-.2-.4" fill="#8b8f92" />
  <path
    d="M102 45c0-.2.2-.5.4-.5s.4.3.4.6-.2.6-.4.6-.3-.3-.3-.6"
    fill="#65686d"
  />
  <path
    d="M102 45c0-.2.3-.4.4-.4.2 0 .3.2.3.4 0 .3 0 .5-.3.5 0 0-.3-.2-.3-.5"
    fill="#7a7b7f"
  />
  <path d="M102.2 45s0-.3.2-.3.2.2.2.3l-.2.4-.2-.4" fill="#8b8f92" />
  <path d="M102.8 45c0-.2 0-.5.3-.5s.5.3.5.6-.2.6-.4.6l-.2-.6" fill="#65686d" />
  <path d="M103 45v-.4c.3 0 .4.2.4.4 0 .3 0 .5-.3.5V45" fill="#7a7b7f" />
  <path d="M103 45v-.3c.3 0 .3.2.3.3l-.2.4V45" fill="#8b8f92" />
  <path
    d="M103.5 45c0-.2.2-.5.4-.5s.2.3.2.6 0 .6-.3.6-.5-.3-.5-.6"
    fill="#65686d"
  />
  <path d="M103.6 45c0-.2 0-.4.3-.4s0 .2 0 .4v.5s-.4-.2-.4-.5" fill="#7a7b7f" />
  <path d="M103.6 45s0-.3.3-.3 0 .2 0 .3v.4l-.4-.4" fill="#8b8f92" />
  <path
    d="M104.2 45c0-.2.2-.5.4-.5s.3.3.3.6-.2.6-.4.6-.4-.3-.4-.6"
    fill="#65686d"
  />
  <path
    d="M104.3 45c0-.2 0-.4.3-.4 0 0 .3.2.3.4 0 .3-.3.5-.4.5-.2 0-.3-.2-.3-.5"
    fill="#7a7b7f"
  />
  <path d="M104.4 45s0-.3.2-.3l.2.3-.2.4-.2-.4" fill="#8b8f92" />
  <path
    d="M105 45c0-.2 0-.5.3-.5.2 0 .4.3.4.6s-.2.6-.4.6-.4-.3-.4-.6"
    fill="#65686d"
  />
  <path
    d="M105 45c0-.2 0-.4.3-.4 0 0 .3.2.3.4 0 .3-.2.5-.3.5-.2 0-.3-.2-.3-.5"
    fill="#7a7b7f"
  />
  <path d="M105 45l.3-.3.2.3-.2.4-.2-.4" fill="#8b8f92" />
  <path
    d="M105.7 45c0-.2 0-.5.3-.5s.4.3.4.6-.2.6-.4.6-.3-.3-.3-.6"
    fill="#65686d"
  />
  <path
    d="M105.7 45c0-.2.2-.4.3-.4.2 0 .3.2.3.4 0 .3 0 .5-.3.5 0 0-.3-.2-.3-.5"
    fill="#7a7b7f"
  />
  <path d="M105.8 45s0-.3.2-.3.2.2.2.3l-.2.4-.2-.4" fill="#8b8f92" />
  <path
    d="M106.4 45c0-.2 0-.5.3-.5s.4.3.4.6 0 .6-.3.6-.3-.3-.3-.6"
    fill="#65686d"
  />
  <path
    d="M106.5 45c0-.2 0-.4.2-.4s.3.2.3.4c0 .3 0 .5-.3.5 0 0-.2-.2-.2-.5"
    fill="#7a7b7f"
  />
  <path d="M106.5 45s0-.3.2-.3.3.2.3.3l-.3.4-.2-.4" fill="#8b8f92" />
  <path
    d="M107 45c0-.2.2-.5.4-.5s.4.3.4.6-.2.6-.4.6-.3-.3-.3-.6"
    fill="#65686d"
  />
  <path
    d="M107.2 45c0-.2 0-.4.3-.4l.2.4c0 .3 0 .5-.2.5s-.3-.2-.3-.5"
    fill="#7a7b7f"
  />
  <path d="M107.2 45s0-.3.3-.3l.2.3-.2.4c-.2 0-.3-.2-.3-.4" fill="#8b8f92" />
  <path
    d="M107.8 45c0-.2.2-.5.4-.5s.3.3.3.6 0 .6-.3.6-.4-.3-.4-.6"
    fill="#65686d"
  />
  <path
    d="M108 45c0-.2 0-.4.2-.4 0 0 .3.2.3.4 0 .3-.2.5-.3.5-.2 0-.3-.2-.3-.5"
    fill="#7a7b7f"
  />
  <path d="M108 45s0-.3.2-.3l.2.3-.2.4-.2-.4" fill="#8b8f92" />
  <path
    d="M108.5 45c0-.2.2-.5.4-.5 0 0 .3.3.3.6s-.2.6-.4.6c-.3 0-.5-.3-.5-.6"
    fill="#65686d"
  />
  <path
    d="M108.6 45c0-.2 0-.4.3-.4l.2.4c0 .3-.2.5-.3.5-.3 0-.4-.2-.4-.5"
    fill="#7a7b7f"
  />
  <path d="M108.7 45s0-.3.2-.3v.7c-.2 0-.3-.2-.3-.4" fill="#8b8f92" />
  <path
    d="M109.3 45c0-.2 0-.5.3-.5.2 0 .4.3.4.6s-.2.6-.4.6-.3-.3-.3-.6"
    fill="#65686d"
  />
  <path
    d="M109.3 45c0-.2 0-.4.3-.4s.3.2.3.4c0 .3-.2.5-.4.5s-.3-.2-.3-.5"
    fill="#7a7b7f"
  />
  <path d="M109.4 45s0-.3.2-.3.2.2.2.3l-.2.4-.2-.4" fill="#8b8f92" />
  <path
    d="M122.2 35c0 .6-.4 1-1 1h-8.8c-.5 0-.8-.4-.8-1v-.5c0-.5.4-1 .8-1h9c.4 0 .8.5.8 1v.6"
    fill="#211c1d"
  />
  <path
    d="M121.3 35.7H112.4c-.4 0-.5-.3-.5-.6v-.5c0-.3 0-.6.4-.6h9c.3 0 .5.2.5.5v.6c0 .5-.3.7-.7.7"
    fill="#3b393d"
  />
  <path
    d="M121.3 35.4H112.4c-.2 0-.2-.2-.2-.3v-.5s0-.3.2-.3h9l.2.3v.6c0 .3 0 .4-.3.4"
    fill="#505256"
  />
  <path
    d="M122.2 37.4c0 .4-.4.8-1 .8h-8.8c-.5 0-.8-.4-.8-.8v-.6c0-.5.4-1 .8-1h9c.4 0 .8.5.8 1v.6"
    fill="#211c1d"
  />
  <path
    d="M121.3 38H112.4c-.4 0-.5-.4-.5-.6v-.6c0-.4 0-.6.4-.6h9c.3 0 .5.2.5.6v.6c0 .3-.3.5-.7.5"
    fill="#3b393d"
  />
  <path
    d="M121.3 37.6H112.4c-.2 0-.2-.2-.2-.2v-.6c0-.2 0-.3.2-.3h9s.2 0 .2.3v.6s0 .2-.3.2"
    fill="#505256"
  />
  <path
    d="M122.2 39.7c0 .5-.4 1-1 1h-8.8c-.5 0-1-.5-1-1V39c0-.4.5-.8 1-.8h9c.4 0 .8.4.8 1v.5"
    fill="#211c1d"
  />
  <path
    d="M121.3 40.3H112.4c-.4 0-.6-.3-.6-.6V39c0-.2.3-.5.6-.5h9c.2 0 .5.3.5.6v.7c0 .3-.4.6-.7.6"
    fill="#3b393d"
  />
  <path
    d="M121.3 40H112.4c-.3 0-.3-.2-.3-.3V39l.4-.2h9s.2 0 .2.3v.7c0 .2 0 .3-.3.3"
    fill="#505256"
  />
  <path
    d="M122.2 42c0 .5-.4 1-1 1h-8.8c-.5 0-1-.5-1-1v-.6c0-.4.5-.8 1-.8h9c.4 0 .8.3.8.8v.6"
    fill="#211c1d"
  />
  <path
    d="M121.3 42.6H112.4c-.4 0-.6-.3-.6-.6v-.6c0-.3.3-.5.6-.5h9c.2 0 .5 0 .5.4v.6c0 .4-.4.6-.7.6"
    fill="#3b393d"
  />
  <path
    d="M121.3 42.3H112.4c-.3 0-.3-.2-.3-.3v-.6l.4-.2h9s.2 0 .2.2v.6c0 .2 0 .3-.3.3"
    fill="#505256"
  />
  <path
    d="M120.5 43.8h-44c-.2 0-.5 0-.5-.4 0-.7.5-1 .5-1h44V44"
    fill="#d69617"
  />
  <path
    d="M96 42.8v-6.6L85.5 36l-1.7-2.4-3.3 1c-2.3 1-6.5 8-3.6 8l19 .2"
    fill="#f7cc08"
  />
  <path
    d="M77.4 39.4c2-4.8 6.5-5.5 6.5-5.5v-.2l-.2-.2-3.3 1c-2 .8-5 5.4-4.5 7.2.5-.3.8-1 1.4-2.4"
    fill="#f9e305"
  />
  <path
    d="M80.5 40c.5-1 1.6-3.7 1-4.3-.2-.4-1-.5-1.6-.6-1.4 1-3 3.2-3.7 5h4.2"
    fill="#e1b310"
  />
  <path
    d="M81.6 35.8c-.3-.3-1-.5-1.7-.6-1.3 1-3 3-3.6 4.8h4l.7-1.7c.8-1.8.7-2.3.6-2.5"
    fill="#211c1d"
  />
  <path
    d="M81.5 36c-.3-.4-.8-.6-1.6-.7-1.3 1-2.8 3-3.5 4.6h3.9c0-.4.4-1 .7-1.7.7-2 .5-2.3.5-2.4"
    fill="#211c1d"
  />
  <path
    d="M77 38.5h4c.2 0 .2-.2.3-.3h-4c-.2 0-.2.2-.3.3zm.4-.7h4v-.3h-3.8s0 .2-.2.3zm.5-.6h3.6V37h-3.5v.2zm.6-1s0 .2-.2.3h3.3v-.3h-3zm3-.5h-2.3s-.2 0-.3.2h2.7v-.3zm-5 3.4H81V39h-4.2v.3zm-.2.8h4.2v-.3h-4c-.2 0-.2.2-.2.3"
    fill="#e1b310"
  />
  <path
    d="M79 35.8c.2 0 .3 0 .4-.2h2.2v.2h.2H79zm-.5.7s0-.2.2-.2h3v.2h-3.2zm-.5.6h3.7H78zm-.5.8s0-.2.2-.2h3.8v.2h-4zm-.4.7l.2-.3h4v.3h-4zm-.3.6H81h-4.3zm-.3.8v-.3H81v.3h-4.4"
    fill="#f6d507"
  />
  <path
    d="M87.7 27h-.2v1.5h.2s.2 0 .2-.2v-1c-.2-.2-.2-.3-.3-.2"
    fill="#a01b21"
  />
  <path d="M87.6 28.4V27l.2.2v1.2h-.2" fill="#cd1e25" />
  <path d="M87.6 28.3v-1 1c.2 0 0 0 0 0" fill="#eb1c24" />
  <path d="M87.4 27h-.2v1.5h.3v-1.2-.3" fill="#3b393d" />
  <path d="M87.3 28.5V27c.2 0 .2 0 .2.2v1.3h-.2" fill="#505256" />
  <path
    d="M77.5 37.8h.8s0-.2.2-.2h-.8l-.2.2zm1-1.3h.8s0-.2.2-.2h-.8l-.2.2zm-1.4 2h1v-.3h-.8v.3zm1-1.4h1-.8-.2zm1.4-1.4l-.3.2h1l.2-.2h-.8zm-3 4.2h1v-.3h-1v.3zm.3-.7h1-1.1"
    fill="#f9e305"
  />
  <path
    d="M95.4 36.4c1.7-4.8.2-10.2-.3-10.7-1.2-.8-9.3-.5-9.5 0-.5 1.7-2 6-2 8.3.2 1.2.6 3.4 1.2 4.8h10.7v-2.4"
    fill="#e1b310"
  />
  <path
    d="M90.8 25.3c-3 0-5.2.3-5.2.5l-.2.7c-.7 2-2 5.5-1.7 7.5 0 1 .4 3.3 1 4.7h10.7v-2.3c1.7-5 0-10.2-.4-10.7-.4-.3-2-.4-4.2-.4zM84.6 39c-.6-1.6-1-4-1-5-.2-2 1-5.6 1.6-7.5l.2-.7c0-.5 3.4-.7 5.4-.7 1 0 3.6.2 4.3.6.7.6 2.2 6 .5 10.8v2.4h-11"
    fill="#c98e1a"
  />
  <path
    d="M84.7 38.7c-.6-1.4-1-3.6-1-4.7-.2-2 1-5.6 1.7-7.5 0-.2 0-.4.2-.6.2-.7 9.3-1 9.4-.2l.3 10.5v2.4H84.7"
    fill="#f7cc08"
  />
  <path
    d="M85 38.5c-.7-1.4-1-3.5-1-4.6-.2-2 1-5.6 1.6-7.4 0-.2 0-.3.2-.5h9c0 1.5.4 9.8 0 9.8h-1.5c-1 0-2 .2-3 .4-1.8.5-3 1.6-3.5 2.4h-2"
    fill="#505256"
  />
  <path
    d="M85 38.2c-.4-1.4-.7-3.3-.7-4.3-.2-2 1-5.6 1.6-7.3v-.3c1.8 0 7.4-.2 8.5 0 0 5.2-1.3 9-1.7 9l-2.5.5c-2 .4-3 1.5-3.7 2.2H85"
    fill="#69788b"
  />
  <path
    d="M94.2 30.6l-10 2.3v1c0 1 .4 2.8 1 4.2h1.4c.6-.7 1.7-1.8 3.7-2.3.7-.3 1.6-.4 2.5-.5h.2c.3-.7 1-2.4 1.2-5"
    fill="#526377"
  />
  <path d="M90.6 36.2h.4V26h-.4v10.2" fill="#505256" />
  <path d="M90.7 36h.2V26h-.3v10" fill="#3b393d" />
  <path d="M85.8 29.4l2.2 3.3-2.2-3.3" fill="#a3a5a7" />
  <path
    d="M85.8 29.4l.5 1 .5.7.6 1 .6.7-.5-1c-.2 0-.3-.4-.5-.7l-.6-.8-.6-.8M87.4 29l2.2 3.2-2.2-3.2"
    fill="#a3a5a7"
  />
  <path
    d="M87.4 29c0 .3.3.6.5.8 0 .3.2.6.4 1 .2 0 .4.4.5.7 0 .2.3.5.6.7l-.5-.8c0-.3-.3-.6-.5-.8 0-.3-.3-.6-.5-.8l-.6-.8M91.3 29l1.5 2.3-1.5-2.4"
    fill="#a3a5a7"
  />
  <path
    d="M91.3 29l.3.6c0 .2.3.4.4.6l.4.5c0 .2.3.4.4.6l-.3-.6c0-.2-.3-.4-.4-.6l-.3-.5c0-.2-.3-.4-.4-.6M92.4 28.6L94 31l-1.6-2.4M92.4 28.6l.3.6.4.6c.3.2.4.4.5.6l.5.6c0-.3-.3-.5-.4-.7 0-.2-.2-.4-.4-.6 0-.2-.2-.3-.4-.5 0-.2-.3-.4-.4-.6"
    fill="#a3a5a7"
  />
  <path
    d="M84 33.8c0-.2 0-.3-.2-.4s-.4.2-.4.3c0 .2 0 .4.3.4.2 0 .3 0 .4-.2"
    fill="#65686d"
  />
  <path
    d="M83.7 34s.3 0 .3-.2c0 0 0-.3-.2-.3s-.3 0-.4.3c0 0 0 .2.3.3"
    fill="#a3a5a7"
  />
  <path
    d="M85.2 27.8s0-.3-.2-.3c0 0-.3 0-.3.3 0 0 0 .2.3.2 0 0 .2 0 .2-.2"
    fill="#65686d"
  />
  <path
    d="M85 28s.2 0 .2-.2c0 0 0-.2-.2-.2 0 0-.2 0-.2.2l.2.2"
    fill="#a3a5a7"
  />
  <path
    d="M83 31.8c0 .4 0 .6.2.7 0 .2.3.3.3.3.2 0 .3 0 .4-.4.2-1 .3-2.6.3-3.4 0-.5 0-.6-.3-.5h-.3c-.2.2-.3.2-.4.7l-.2 1.3v1.3"
    fill="#65686d"
  />
  <path
    d="M83.5 32.8h.2l.2-.4.3-3.4v-.5H84h-.3c-.2.2-.3.2-.3.7 0 0-.2.6-.2 1.3v1.3c-.2.4 0 .6 0 .7l.3.3zm.2 0h-.2s-.2 0-.3-.2c-.2-.2-.3-.4-.2-.8v-1.3l.3-1.3c0-.5.2-.6.4-.7h.6v.5c0 .8 0 2.4-.3 3.4 0 .3-.2.5-.3.5"
    fill="#3b393d"
  />
  <path
    d="M84 28.4c.3 0 .4.2.4.6 0 .8 0 2.4-.4 3.4 0 .4-.2.5-.5.4 0-.2 0-.8.3-2.2.2-1.4 0-2 0-2l.2-.2"
    fill="#3b393d"
  />
  <path
    d="M85 27.6v.2c-1 0-1.2.3-1.3 1l-.5 4c0 .5 0 .8.6 1-.8 0-1-.2-.8-1l.4-4c0-.8.6-1.3 1.6-1.2"
    fill="#babbbc"
  />
  <path
    d="M85 27.7c-1 0-1.3.5-1.4 1l-.4 4c0 .6 0 1 .5 1-.7 0-.7-.2-.7-1l.5-4c0-.5.4-1 1.5-1"
    fill="#e8e8e8"
  />
  <path d="M120.3 30.5h-10.8l-14 5.6v6.7l16.5.2v-8.3h8.3v-4.2" fill="#f7cc08" />
  <path d="M95.6 36V43H112v-8h8.3v-4.3h-10.8l-14 5.6" fill="#d69617" />
  <path
    d="M100.4 42.8L96 37v-.7l13.7-5.4H120v3.4h-8.2V37l-6.3 5.8h-5"
    fill="#f7cc08"
  />
  <path d="M120 33v-2.2h-10.4l-4.3 1.8v.4H120" fill="#f9db0c" />
  <path d="M100 42.8h6V39h-6v3.8z" fill="#d78f17" />
  <path d="M105.7 32.7l4-1.5h10v1.5h-14" fill="#f6f010" />
  <path d="M104.7 42.8v-9.5h16V35h-9v8l-7-.2" fill="#e9ae0f" />
  <path d="M105.3 34v8.8h6.5v-8.4h8.2V34h-14.7" fill="#f9db0c" />
  <path d="M120.5 42.8l-1.7.6h-4l-1.8-.6v-9.2h7.5v9.2" fill="#3b393d" />
  <path d="M113 42.7v-9h7.4v9l-1.6.5h-4l-1.7-.5" fill="#505256" />
  <path d="M118.8 43.4h-4v-9l-1.8-.8h7.5l-1.7.7v9" fill="#65686d" />
  <path d="M114.8 34.3l-1.8-.7h7.5l-1.7.7h-4" fill="#7a7b7f" />
  <path d="M100.4 42.8v-8.3l-4.6 1.8v6.5h4.6" fill="#f9db0c" />
  <path d="M114.8 43.4h4v-9h-4v9z" fill="#e7af0f" />
  <path d="M115.2 42.8h3v-8h-3v8z" fill="#f6d507" />
  <path
    d="M115.2 38l3 2.4v-1l-3-2.3v1zm0-2l3 2.5v-1l-3-2.4v1zm2.3-1h-1.2l2 1.5v-1l-.8-.6zm-2.3 7l1 .8h1.2l-2.2-1.8v1zm0-2l3 2.4v-1l-3-2.4v1"
    fill="#ea1d27"
  />
  <path
    d="M85.5 25.8v.4l.2-.2s2.5-1.2 9.3-.2c-1.3-1-9.3-.5-9.5 0"
    fill="#f6f015"
  />
  <path
    d="M104.3 41.8c0 .6-.5 1.2-1.2 1.2h-1c-.7 0-1.3-.6-1.3-1.2v-1.2c0-.7.6-1.2 1.2-1.2h1c.8 0 1.3.5 1.3 1.2v1.2"
    fill="#505256"
  />
  <path d="M99.3 42.8h1v-8.3l-1 .4v7.8" fill="#e9ae0f" />
  <path
    d="M111 36.6h-4.7-.2 5.1M111 37.2h-4.7-.2 5.1M111 37.8h-4.7-.2l.3-.2h4.5c.2 0 .3 0 .3.2M111 38.4h-4.7-.2l.3-.2h4.5c.2 0 .3 0 .3.2M111 39h-4.7-.2l.3-.2h4.5c.2 0 .3 0 .3.2M111 39.5s0 .2-.2.2h-4.5s-.2 0-.2-.2h5.1M111 40c0 .2 0 .3-.2.3h-4.5s-.2 0-.2-.2h5.1"
    fill="#d69617"
  />
  <path
    d="M92 37.3c0 .3.5.6 1 .6.4 0 .8-.4.8-.7 0-.3-.4-.6-.8-.6-.5 0-1 .3-1 .6"
    fill="#e7c20d"
  />
  <path
    d="M93 36.8c-.5 0-.8.2-.8.5s.3.5.8.5c.4 0 .7-.2.7-.5s-.3-.5-.7-.5zm0 1c-.5 0-1 0-1-.5 0-.3.5-.6 1-.6s1 .3 1 .6c0 .4-.5.6-1 .6"
    fill="#c2911a"
  />
  <path
    d="M91.8 37.3s0 .2.3.2h2s.2 0 .2-.2c0 0 0-.2-.2-.2h-2l-.2.3"
    fill="#f6db06"
  />
  <path
    d="M92 37l-.2.3s0 .2.3.2h2s.2 0 .2-.2c0 0 0-.2-.3-.2h-2zm2 .6h-2s-.2 0-.2-.3c0 0 0-.3.3-.3h2l.2.3c0 .2 0 .3-.2.3"
    fill="#cea317"
  />
  <path
    d="M94.2 37.3s0-.2-.2-.2-.3.2-.3.3c0 0 0 .2.3.2 0 0 .2 0 .2-.2"
    fill="#f6db06"
  />
  <path
    d="M94 37l-.2.3s0 .2.2.2v-.2-.2zm0 .6c-.2 0-.3 0-.3-.3 0 0 0-.2.3-.2l.2.3c0 .2 0 .3-.2.3"
    fill="#cea317"
  />
  <path d="M119 32v.2h-10.2V32H119" fill="#a11b21" />
  <path
    d="M78 41.5c-.2 0-.3 0-.3-.3 0-.2 0-.3.3-.3h16.6s.3 0 .3.2-.3.3-.4.3H78"
    fill="#dea913"
  />
  <path d="M78 41.4s-.2 0-.2-.2c0 0 0-.2.2-.2h16.6v.4H78" fill="#f2c10a" />
  <path d="M99 55.2h6.7v-2.8H99v2.8z" fill="#191f22" />
  <path d="M68.4 38c1.5 1.6 2 8 2 8H50l.3-11.8s14.7.4 18 4" fill="#d69617" />
  <path
    d="M50 45.7l.4-11.4c1.6 0 14.8.7 18 4 1.2 1.2 1.8 6.4 2 7.4H50"
    fill="#f7cc08"
  />
  <path
    d="M50.3 39.5H69c-.2-.6-.5-1-.8-1.3 0-.2-.3-.3-.4-.5H50.3v1.8"
    fill="#dfb611"
  />
  <path d="M50.3 38H68c-.4-.4-1-.7-1.7-1h-16v1" fill="#f9e305" />
  <path d="M67 37.3H50.5v2h18.5c-.3-.6-.5-1-.7-1l-1.2-1" fill="#f7cc08" />
  <path d="M50 44.5h20v-1.8H50v1.8" fill="#dfb611" />
  <path d="M50.2 43H70c-.2-.3-.2-.7-.3-1H50.2v1" fill="#f9e305" />
  <path d="M50 44.2h20c0-.6 0-1.2-.2-2H50.2v2" fill="#f7cc08" />
  <path
    d="M65 36.5c-5-1.8-13.3-2-14.6-2.2v.8c1.8 0 10 .2 14.7 1.5"
    fill="#f9e305"
  />
  <path d="M124.8 45.6h-81v7.2h82.3v-6c0-1-1.2-1.2-1.2-1.2" fill="#1f2f43" />
  <path
    d="M38 33.8c-1.4 1-4 9.4-4 9.4s-.5 6.4 0 8.7c.3.5 1.6 1.4 2.6 1.5H44l6.7-3.5s0-11.5-.3-15.5c0-.5 0-2-.4-2-2.2-.5-10.4.3-12 1.3"
    fill="#c2911a"
  />
  <path
    d="M36.6 53.3c-1 0-2.2-1-2.4-1.5-.6-2.2-.2-8.2-.2-8.6 1-3 3-8.5 4-9.3 1.4-1 7.3-1.5 10.4-1.5H50c.2.2.3 1.4.3 1.8v.2c.3 3.8.2 14.3.2 15.4L44 53.2h-7.4"
    fill="#f7cc08"
  />
  <path
    d="M54.3 50.3c0 .6-.5 1.2-1.2 1.2h-8c-.7 0-1.2-.6-1.2-1.2v-2.6c0-.7.5-1.2 1.2-1.2h8c.8 0 1.3.5 1.3 1.2v2.6"
    fill="#657686"
  />
  <path
    d="M36.3 43.3H36V43c0-.3 1.8-6.5 3.3-7.5.8-.5 4-1 6.2-1h.7c.7 0 1 .6.8.8v6.3h-.2s-4 .3-5.2.6c-.3 0-.7.3-1 .5l-1.2.4c-.6.3-2.3.3-3 .3"
    fill="#f9e305"
  />
  <path
    d="M46.2 34.7c-2.3 0-6 .4-6.8 1-1.4 1-3 7.3-3 7.3s2.2 0 3 0c.5-.2 1.5-1 2-1 1.4-.3 5.4-.6 5.4-.6v-6s0-.6-.6-.7"
    fill="#3b393d"
  />
  <path
    d="M36.7 42.7c.5-2 2-6 3-6.8.5-.5 3.6-1 5.8-1h.7c.3 0 .3.3.3.3V41l-5 .7c-.4 0-.8.3-1.2.5-.4.2-.7.4-1 .4h-2.6"
    fill="#505256"
  />
  <path
    d="M37 42.4c1-2.7 2-5.7 2.7-6.2.6-.4 3.5-1 5.8-1h.7V41c-1 0-3.8.2-4.8.4-.4 0-.8.3-1.2.5-.4 0-.8.3-1 .3H37"
    fill="#69788b"
  />
  <path d="M41.3 53.5H126v-5H42.7l-1.3 5" fill="#191f22" />
  <path d="M119 53.5H86l3.4-7.6 27-.2 2.5 7.7" fill="#191f22" />
  <path
    d="M95 60.8c3.6 0 6.6-3 6.6-6.8 0-3.7-3-6.7-6.7-6.7-4 0-7 3-7 6.7s3 6.8 7 6.8"
    fill="#3b393d"
  />
  <path
    d="M95 60.8c3.6 0 6.6-3 6.6-6.8 0-3.7-3-6.7-6.7-6.7-4 0-7 3-7 6.7s3 6.8 7 6.8"
    fill="#3b393d"
  />
  <path
    d="M95 57.5c1.8 0 3.3-1.6 3.3-3.5 0-2-1.5-3.4-3.4-3.4-2 0-3.6 1.5-3.6 3.4 0 2 1.6 3.5 3.5 3.5"
    fill="#3b393d"
  />
  <path
    d="M95 57.4c1.7 0 3.3-1.5 3.3-3.4 0-2-1.6-3.4-3.4-3.4-2 0-3.6 1.5-3.6 3.4 0 2 1.6 3.4 3.5 3.4"
    fill="#f6d507"
  />
  <path
    d="M95 47.3c-4 0-7 3-7 6.7s3 6.8 7 6.8c3.6 0 6.6-3 6.6-6.8 0-3.7-3-6.7-6.7-6.7"
    fill="#292828"
  />
  <path
    d="M95 57.4c1.7 0 3.2-1.5 3.2-3.4 0-1.8-1.5-3.3-3.3-3.3s-3.5 1.5-3.5 3.3c0 2 1.5 3.4 3.4 3.4"
    fill="#e1b310"
  />
  <path
    d="M95 57c1.5 0 2.8-1.3 2.8-3 0-1.6-1.3-3-3-3-1.6 0-3 1.4-3 3 0 1.7 1.4 3 3 3"
    fill="#f2f3f3"
  />
  <path
    d="M95 57c1.5 0 3-1.3 3-3 0-1.6-1.5-3-3-3-1.8 0-3.2 1.4-3.2 3 0 1.7 1.4 3 3 3"
    fill="#cfa217"
  />
  <path
    d="M95 57c1.5 0 2.8-1.3 2.8-3 0-1.6-1.3-3-3-3-1.6 0-3 1.4-3 3 0 1.7 1.4 3 3 3"
    fill="#face07"
  />
  <path
    d="M95 56.8c1.4 0 2.6-1.3 2.6-2.8 0-1.5-1.2-2.7-2.7-2.7-1.7 0-3 1.2-3 2.7 0 1.5 1.3 2.8 3 2.8"
    fill="#3b393d"
  />
  <path
    d="M95 56.8c1.4 0 2.6-1.2 2.6-2.8 0-1.5-1.2-2.7-2.7-2.7-1.7 0-3 1.2-3 2.7 0 1.6 1.3 2.8 3 2.8"
    fill="#e1b310"
  />
  <path
    d="M95 56.7c1.3 0 2.6-1.2 2.6-2.7 0-1.5-1.3-2.7-2.7-2.7-1.6 0-3 1.2-3 2.7 0 1.5 1.4 2.7 3 2.7"
    fill="#c2911a"
  />
  <path
    d="M95 55c.4 0 1-.4 1-1 0-.5-.6-1-1-1-.7 0-1.2.5-1.2 1 0 .6.5 1 1 1"
    fill="#211c1d"
  />
  <path
    d="M95 54.8c.3 0 .6-.3.6-.8 0-.4-.3-.8-.7-.8s-1 .4-1 .8c0 .5.4.8 1 .8"
    fill="#505256"
  />
  <path
    d="M95 54.7c.2 0 .5-.3.5-.7 0-.3-.3-.6-.6-.6-.5 0-.8.3-.8.6 0 .4.3.7.7.7"
    fill="#3b393d"
  />
  <path
    d="M94.8 53c.2 0 .3-.2.3-.4 0 0 0-.2-.2-.2 0 0-.2 0-.2.2s0 .3.2.3M94.8 55.6c.2 0 .3 0 .3-.2s0-.3-.2-.3-.2.2-.2.4c0 0 0 .2.2.2M93.6 55c.2 0 .3-.2.3-.3 0-.2-.2-.3-.4-.3 0 0-.2 0-.2.3 0 0 0 .2.2.2M93.7 53.6s.2 0 .2-.3l-.3-.2c-.2 0-.3.2-.3.3 0 .2 0 .3.3.3M96 53.6c.2 0 .3-.2.3-.3 0 0 0-.3-.3-.3l-.2.3s0 .3.2.3M96 55c.3 0 .4-.2.4-.4 0 0 0-.2-.3-.2s0 0 0 .2v.3"
    fill="#211c1d"
  />
  <path d="M94.8 53l-.2-.4s0-.2.2-.2c0 0 .2 0 .2.2s0 .3-.2.3" fill="#3b393d" />
  <path d="M94.8 52.8v-.2.2" fill="#211c1d" />
  <path
    d="M94.8 55.6s-.2 0-.2-.2c0 0 0-.2.2-.2 0 0 .2 0 .2.2 0 0 0 .2-.2.2"
    fill="#3b393d"
  />
  <path d="M94.8 55.5v-.2.2" fill="#211c1d" />
  <path d="M93.6 55l-.2-.3s0-.2.2-.2.3 0 .3.2l-.4.2" fill="#3b393d" />
  <path d="M93.6 54.8v-.2h.2c0 .2 0 .2-.2.2" fill="#211c1d" />
  <path
    d="M93.7 53.5s-.2 0-.2-.2c0 0 0-.2.2-.2s.2.2.2.3l-.3.2"
    fill="#3b393d"
  />
  <path d="M93.7 53.4h-.2c0-.2 0-.2.2-.2v.2" fill="#211c1d" />
  <path
    d="M96 53.5s-.2 0-.2-.2c0 0 0-.2.2-.2s.3.2.3.3c0 0 0 .2-.3.2"
    fill="#3b393d"
  />
  <path d="M96 53.4V53h.2c0 .2 0 .2-.2.2" fill="#211c1d" />
  <path d="M96 54.8v-.2-.2c.2 0 .3 0 .3.2 0 0 0 .2-.2.2" fill="#3b393d" />
  <path d="M96 54.8v-.2h.2v.2" fill="#211c1d" />
  <path
    d="M95 49.6c-2.6 0-4.5 2-4.5 4.4 0 2.4 2 4.4 4.4 4.4s4.2-2 4.2-4.4c0-2.4-2-4.4-4.3-4.4zm0 10.7c-3.6 0-6.5-2.8-6.5-6.3s3-6.3 6.4-6.3c3.3 0 6.2 2.8 6.2 6.3s-3 6.3-6.3 6.3"
    fill="#3b393d"
  />
  <path
    d="M95.3 48c0 .3-.5.3-.5 0v-.7h.5v.7M94 48c0 .3-.5.4-.5 0l-.2-.6h.5l.2.6M92.8 48.3c0 .3-.4.5-.5.2L92 48c0-.2.5-.4.5-.3l.3.6M91.7 48.8c0 .3-.3.6-.5.3l-.4-.4s.4-.4.5-.3l.4.5M90.7 49.6c.2.2-.2.6-.4.4l-.5-.5s.3-.5.4-.4l.5.6M90 50.5c0 .2-.2.6-.4.4l-.6-.4.3-.5.6.5M89.3 51.6c.2 0 0 .6-.2.5l-.6-.2s0-.5.2-.5l.7.3M89 52.7c.2 0 0 .6-.2.5H88s0-.6.2-.6h.7M88.7 54c.3 0 .4.5 0 .5h-.6V54h.7M89 55.2s.3.4 0 .5h-.7c0 .2-.2-.3 0-.4h.6M89.2 56.3c.3 0 .5.4.2.5l-.6.3c0 .2-.3-.3-.2-.3l.6-.4M89.8 57.4c.2 0 .5.3.3.4l-.5.5-.3-.4.6-.6M90.6 58.4c.2-.2.6 0 .4.3l-.5.5-.4-.3.6-.6M91.5 59c.2 0 .6 0 .5.4l-.4.6-.4-.2.3-.7M92.6 59.7c0-.3.6 0 .5.2v.5h-.6l.2-.8M93.8 60c0-.3.6-.2.5 0v.8h-.6V60M95 60c0-.2.5-.2.5 0v.8h-.4V60M96.2 60c0-.3.5-.5.5-.2l.2.7s-.5.2-.6 0l-.2-.5M97.4 59.6c0-.3.3-.5.5-.3l.2.6-.5.2-.3-.6M98.5 59c-.2-.3.2-.6.4-.4l.3.5c0 .2-.4.5-.4.5l-.5-.6M99.4 58c-.3 0 0-.5.3-.3l.5.4c0 .2-.2.6-.3.5l-.6-.4M100 57c-.2 0 0-.5.3-.3l.7.3s-.2.5-.3.4l-.6-.3M100.6 56c-.3 0 0-.6 0-.5l.8.2v.5l-.8-.2M101 54.8c-.4 0-.4-.5 0-.5h.6v.6l-.7-.2M101 53.6c-.4 0-.4-.5-.2-.5h.7s.2.5 0 .5h-.6M100.7 52.4c-.3 0-.5-.4-.2-.5l.7-.4.2.5-.7.4M100.2 51.2c-.2.2-.5-.3-.2-.4l.6-.4s.3.4.2.5l-.6.2M99.6 50.2c-.2.2-.6-.2-.4-.4l.5-.5.4.4-.4.5M98.7 49.3c-.2.3-.6 0-.4-.3l.4-.5s.5.2.4.3l-.3.5M97.7 48.6c0 .3-.6 0-.5-.2l.3-.6s.5 0 .5.2l-.3.6M96.5 48.2c0 .3-.5.2-.5 0l.2-.8h.5l-.2.8"
    fill="#211c1d"
  />
  <path
    d="M95 50c-2.3 0-4 2-4 4 0 2.2 1.7 4 4 4s3.7-1.8 3.7-4c0-2-1.7-4-3.8-4zm0 9c-3 0-5-2.2-5-5 0-2.7 2-5 5-5 2.6 0 4.8 2.3 4.8 5 0 2.8-2.2 5-5 5"
    fill="#3a3a3b"
  />
  <path
    d="M95 48.7c-3 0-5.5 2.4-5.5 5.3 0 3 2.4 5.3 5.4 5.3 2.8 0 5.2-2.3 5.2-5.3s-2.4-5.3-5.3-5.3zm0 10.7c-3 0-5.6-2.4-5.6-5.4 0-3 2.5-5.4 5.5-5.4 2.8 0 5.3 2.4 5.3 5.4 0 3-2.5 5.4-5.4 5.4"
    fill="#211c1d"
  />
  <path
    d="M49 60.8c3.8 0 7-3 7-6.8 0-3.7-3.2-6.7-7-6.7-3.6 0-6.6 3-6.6 6.7s3 6.8 6.7 6.8"
    fill="#3b393d"
  />
  <path
    d="M49 60.8c3.8 0 7-3 7-6.8 0-3.7-3.2-6.7-7-6.7-3.6 0-6.6 3-6.6 6.7s3 6.8 6.7 6.8"
    fill="#3b393d"
  />
  <path
    d="M49 57.5c2 0 3.6-1.6 3.6-3.5 0-2-1.6-3.4-3.5-3.4-1.8 0-3.3 1.5-3.3 3.4 0 2 1.5 3.5 3.4 3.5"
    fill="#3b393d"
  />
  <path
    d="M49 57.4c2 0 3.5-1.5 3.5-3.4 0-2-1.5-3.4-3.4-3.4S45.8 52 45.8 54c0 2 1.5 3.4 3.4 3.4"
    fill="#f6d507"
  />
  <path
    d="M49 47.3c-3.6 0-6.6 3-6.6 6.7s3 6.8 6.7 6.8c3.8 0 7-3 7-6.8 0-3.7-3.2-6.7-7-6.7"
    fill="#292828"
  />
  <path
    d="M49 57.4c2 0 3.4-1.5 3.4-3.4 0-1.8-1.4-3.3-3.3-3.3S46 52.2 46 54c0 2 1.5 3.4 3.3 3.4"
    fill="#e1b310"
  />
  <path
    d="M49 57c1.8 0 3-1.3 3-3 0-1.6-1.2-3-3-3-1.5 0-2.8 1.4-2.8 3 0 1.7 1.3 3 3 3"
    fill="#f2f3f3"
  />
  <path
    d="M49 57c1.8 0 3-1.3 3-3 0-1.6-1.2-3-3-3-1.6 0-3 1.4-3 3 0 1.7 1.4 3 3 3"
    fill="#cfa217"
  />
  <path
    d="M49 57c1.8 0 3-1.3 3-3 0-1.6-1.2-3-3-3-1.5 0-3 1.4-3 3 0 1.7 1.5 3 3 3"
    fill="#face07"
  />
  <path
    d="M49 56.8c1.6 0 3-1.3 3-2.8 0-1.5-1.4-2.7-3-2.7s-2.6 1.2-2.6 2.7c0 1.5 1.2 2.8 2.7 2.8"
    fill="#3b393d"
  />
  <path
    d="M49 56.8c1.6 0 3-1.2 3-2.8 0-1.5-1.4-2.7-3-2.7-1.4 0-2.7 1.2-2.7 2.7 0 1.6 1.3 2.8 2.8 2.8"
    fill="#e1b310"
  />
  <path
    d="M49 56.7c1.6 0 2.8-1.2 2.8-2.7 0-1.5-1.2-2.7-2.7-2.7-1.4 0-2.6 1.2-2.6 2.7 0 1.5 1.2 2.7 2.7 2.7"
    fill="#c2911a"
  />
  <path
    d="M49 55c.7 0 1-.4 1-1 0-.5-.3-1-1-1-.4 0-1 .5-1 1 0 .6.6 1 1 1"
    fill="#211c1d"
  />
  <path
    d="M49 54.8c.6 0 1-.3 1-.8 0-.4-.4-.8-1-.8-.3 0-.7.4-.7.8 0 .5.4.8.8.8"
    fill="#505256"
  />
  <path
    d="M49 54.7c.5 0 .8-.3.8-.7 0-.3-.3-.6-.7-.6-.3 0-.6.3-.6.6 0 .4.3.7.7.7"
    fill="#3b393d"
  />
  <path
    d="M49 53c.2 0 .4-.2.4-.4l-.3-.2s-.2 0-.2.2 0 .3.3.3M49 55.6c.2 0 .4 0 .4-.2S49 55 49 55l-.2.4s0 .2.3.2M48 55l.2-.3c0-.2 0-.3-.3-.3-.2 0-.3 0-.3.3 0 0 0 .2.2.2M48 53.6s.2 0 .2-.3c0 0 0-.2-.2-.2s-.3.2-.3.3c0 .2 0 .3.3.3M50.3 53.6l.3-.3-.3-.3-.3.3.3.3M50.4 55s.3-.2.3-.4l-.3-.2c-.2 0-.3 0-.3.2s.2.3.4.3"
    fill="#211c1d"
  />
  <path d="M49 53v-.4-.2c.2 0 .3 0 .3.2s0 .3-.2.3" fill="#3b393d" />
  <path d="M49 52.8v-.2h.2v.2" fill="#211c1d" />
  <path d="M49 55.6v-.2-.2c.2 0 .3 0 .3.2 0 0 0 .2-.2.2" fill="#3b393d" />
  <path d="M49 55.5v-.2h.2v.2" fill="#211c1d" />
  <path d="M48 55c-.2 0-.3-.2-.3-.3 0 0 0-.2.2-.2v.4" fill="#3b393d" />
  <path d="M48 54.8h-.2v-.2h.2v.2" fill="#211c1d" />
  <path
    d="M48 53.5c-.2 0-.3 0-.3-.2 0 0 0-.2.3-.2s.2.2.2.3c0 0 0 .2-.2.2"
    fill="#3b393d"
  />
  <path d="M48 53.4h-.2c0-.2 0-.2.2-.2v.2" fill="#211c1d" />
  <path d="M50.3 53.5s-.2 0-.2-.2l.3-.2.2.3s0 .2-.2.2" fill="#3b393d" />
  <path d="M50.3 53.4V53v.2" fill="#211c1d" />
  <path
    d="M50.4 54.8s-.2 0-.2-.2c0 0 0-.2.2-.2 0 0 .2 0 .2.2 0 0 0 .2-.2.2"
    fill="#3b393d"
  />
  <path d="M50.4 54.8v-.2.2" fill="#211c1d" />
  <path
    d="M49 49.6c-2.3 0-4.3 2-4.3 4.4 0 2.4 2 4.4 4.4 4.4 2.5 0 4.5-2 4.5-4.4 0-2.4-2-4.4-4.4-4.4zm0 10.7c-3.4 0-6.2-2.8-6.2-6.3s2.8-6.3 6.3-6.3c3.6 0 6.4 2.8 6.4 6.3s-2.8 6.3-6.3 6.3"
    fill="#3b393d"
  />
  <path
    d="M49.6 48c0 .3-.6.3-.6 0v-.7h.6v.7M48.2 48c0 .3-.4.4-.5 0v-.6h.4l.2.6M47 48.3c.2.3-.3.5-.4.2l-.3-.6c0-.2.4-.4.5-.3l.2.6M46 48.8c0 .3-.3.6-.5.3l-.4-.4.5-.3.4.5M45 49.6c.2.2-.2.6-.4.4l-.5-.5s.4-.5.5-.4l.5.6M44.2 50.5c.2.2 0 .6-.3.4l-.7-.4.3-.5.6.5M43.5 51.6c.3 0 0 .6 0 .5l-.8-.2s0-.5.2-.5l.5.3M43.2 52.7c.3 0 .2.6 0 .5h-.8v-.6h.8M43 54c.3 0 .3.5 0 .5h-.7V54h.7M43 55.2c.4 0 .5.4.3.5h-.7c0 .2-.2-.3 0-.4h.5M43.5 56.3c.2 0 .5.4.2.5l-.6.3c0 .2-.2-.3-.2-.3l.7-.4M44 57.4c.3 0 .6.3.4.4l-.6.5-.3-.4.6-.6M44.8 58.4c.2-.2.6 0 .4.3l-.4.5s-.5-.2-.4-.3l.4-.6M45.8 59s.6 0 .4.4l-.3.6-.6-.2.4-.7M47 59.7c0-.3.5 0 .4.2l-.2.5h-.5l.2-.8M48 60c0-.3.6-.2.6 0v.8H48V60M49.3 60c0-.2.5-.2.5 0v.8h-.4V60M50.5 60c0-.3.4-.5.5-.2l.2.7s-.5.2-.5 0l-.2-.5M51.7 59.6c-.2-.3.3-.5.4-.3l.5.6-.5.2-.3-.6M52.7 59c-.2-.3.2-.6.4-.4l.6.5c0 .2-.4.5-.4.5l-.5-.6M53.6 58c-.2 0 0-.5.4-.3l.5.4c0 .2-.3.6-.3.5l-.6-.4M54.4 57c-.3 0 0-.5.2-.3l.6.3s0 .5-.2.4l-.6-.3M55 56c-.4 0-.3-.6 0-.5l.7.2s0 .5-.2.5L55 56M55.2 54.8c-.3 0-.3-.5 0-.5h.7v.6l-.8-.2M55.2 53.6c-.3 0-.4-.5 0-.5h.6v.5h-.6M55 52.4c-.3 0-.5-.4-.2-.5l.7-.4s.2.5 0 .5l-.5.4M54.5 51.2c-.2.2-.5-.3-.3-.4l.6-.4s.4.4.3.5l-.5.2M53.8 50.2c-.2.2-.5-.2-.3-.4l.5-.5.4.4-.6.5M53 49.3c-.2.3-.6 0-.4-.3l.4-.5.4.3-.4.5M52 48.6c-.2.3-.6 0-.5-.2l.3-.6s.5 0 .4.2l-.2.6M50.8 48.2c0 .3-.6.2-.5 0l.2-.8h.5l-.2.8"
    fill="#211c1d"
  />
  <path
    d="M49 50c-2 0-3.8 2-3.8 4 0 2.2 1.8 4 4 4 2 0 3.8-1.8 3.8-4 0-2-1.7-4-4-4zm0 9c-2.6 0-5-2.2-5-5 0-2.7 2.4-5 5-5s5 2.3 5 5c0 2.8-2 5-5 5"
    fill="#3a3a3b"
  />
  <path
    d="M49 48.7C46.3 48.7 44 51 44 54c0 3 2.4 5.3 5.3 5.3 3 0 5.4-2.3 5.4-5.3S52 48.7 49 48.7zm0 10.7c-3 0-5.3-2.4-5.3-5.4 0-3 2.4-5.4 5.4-5.4 3 0 5.5 2.4 5.5 5.4 0 3-2.4 5.4-5.4 5.4"
    fill="#211c1d"
  />
  <path
    d="M88 45.6l.6.2-1.2 3-.5-.2c-.3 0-.4-.2-.3-.4l1-2.4c0-.2.2-.3.4-.2"
    fill="#a01b21"
  />
  <path d="M87.3 48.6l1-2.7-.3-.2h-.2l-1 2.5v.2h.5" fill="#cd1e25" />
  <path d="M87.2 48.4l1-2.4h-.3l-1 2.3h.2" fill="#eb1c24" />
  <path d="M88.6 45.8l.5.2-1 3h-.6v-.5l1-2.5c0-.2 0-.3.2-.2" fill="#3b393d" />
  <path d="M87.8 49l1.2-3-.4-.2-.2.3-1 2.5v.3l.4.2" fill="#505256" />
  <path
    d="M110.7 60.8c3.7 0 6.7-3 6.7-6.8 0-3.7-3-6.7-6.7-6.7-3.8 0-6.8 3-6.8 6.7s3 6.8 6.7 6.8"
    fill="#3b393d"
  />
  <path
    d="M110.7 60.8c3.7 0 6.7-3 6.7-6.8 0-3.7-3-6.7-6.7-6.7-3.8 0-6.8 3-6.8 6.7s3 6.8 6.7 6.8"
    fill="#3b393d"
  />
  <path
    d="M110.7 57.5c2 0 3.4-1.6 3.4-3.5 0-2-1.4-3.4-3.3-3.4-2 0-3.5 1.5-3.5 3.4 0 2 1.6 3.5 3.5 3.5"
    fill="#3b393d"
  />
  <path
    d="M110.7 57.4c1.8 0 3.4-1.5 3.4-3.4 0-2-1.5-3.4-3.3-3.4-2 0-3.5 1.5-3.5 3.4 0 2 1.6 3.4 3.5 3.4"
    fill="#f6d507"
  />
  <path
    d="M110.7 47.3c-3.8 0-6.8 3-6.8 6.7s3 6.8 6.7 6.8 6.7-3 6.7-6.8c0-3.7-3-6.7-6.7-6.7"
    fill="#292828"
  />
  <path
    d="M110.7 57.4c1.8 0 3.3-1.5 3.3-3.4 0-1.8-1.5-3.3-3.3-3.3-2 0-3.4 1.5-3.4 3.3 0 2 1.5 3.4 3.4 3.4"
    fill="#e1b310"
  />
  <path
    d="M110.7 57c1.6 0 3-1.3 3-3 0-1.6-1.4-3-3-3-1.7 0-3 1.4-3 3 0 1.7 1.3 3 3 3"
    fill="#f2f3f3"
  />
  <path
    d="M110.7 57c1.6 0 3-1.3 3-3 0-1.6-1.4-3-3-3s-3 1.4-3 3c0 1.7 1.3 3 3 3"
    fill="#cfa217"
  />
  <path
    d="M110.7 57c1.6 0 3-1.3 3-3 0-1.6-1.4-3-3-3-1.7 0-3 1.4-3 3 0 1.7 1.3 3 3 3"
    fill="#face07"
  />
  <path
    d="M110.7 56.8c1.5 0 2.7-1.3 2.7-2.8 0-1.5-1.2-2.7-2.7-2.7-1.6 0-2.8 1.2-2.8 2.7 0 1.5 1 2.8 2.7 2.8"
    fill="#3b393d"
  />
  <path
    d="M110.7 56.8c1.5 0 2.7-1.2 2.7-2.8 0-1.5-1.2-2.7-2.7-2.7-1.6 0-2.8 1.2-2.8 2.7 0 1.6 1 2.8 2.7 2.8"
    fill="#e1b310"
  />
  <path
    d="M110.7 56.7c1.4 0 2.7-1.2 2.7-2.7 0-1.5-1.3-2.7-2.7-2.7-1.5 0-2.8 1.2-2.8 2.7 0 1.5 1.2 2.7 2.7 2.7"
    fill="#c2911a"
  />
  <path
    d="M110.7 55c.5 0 1-.4 1-1 0-.5-.5-1-1-1-.6 0-1 .5-1 1 0 .6.4 1 1 1"
    fill="#211c1d"
  />
  <path
    d="M110.7 54.8c.4 0 .7-.3.7-.8 0-.4-.3-.8-.7-.8-.5 0-.8.4-.8.8 0 .5.2.8.7.8"
    fill="#505256"
  />
  <path
    d="M110.7 54.7c.3 0 .6-.3.6-.7 0-.3-.3-.6-.6-.6-.4 0-.7.3-.7.6 0 .4.3.7.7.7"
    fill="#3b393d"
  />
  <path
    d="M110.6 53c.2 0 .3-.2.3-.4l-.4-.2s-.2 0-.2.2 0 .3.2.3M110.6 55.6c.2 0 .3 0 .3-.2s-.2-.3-.4-.3l-.2.4s0 .2.2.2M109.4 55c.2 0 .3-.2.3-.3 0-.2 0-.3-.3-.3 0 0-.2 0-.2.3 0 0 0 .2.2.2M109.5 53.6s.3 0 .3-.3l-.3-.2c-.2 0-.3.2-.3.3 0 .2 0 .3.3.3M111.8 53.6c.2 0 .3-.2.3-.3 0 0 0-.3-.2-.3l-.2.3s0 .3.2.3M112 55l.2-.4s0-.2-.3-.2c-.2 0-.3 0-.3.2s0 .3.2.3"
    fill="#211c1d"
  />
  <path d="M110.6 53l-.2-.4s0-.2.2-.2c0 0 .2 0 .2.2s0 .3-.2.3" fill="#3b393d" />
  <path d="M110.6 52.8v-.2h.2s0 .2-.2.2" fill="#211c1d" />
  <path
    d="M110.6 55.6s-.2 0-.2-.2c0 0 0-.2.2-.2s.3 0 .3.2l-.4.2"
    fill="#3b393d"
  />
  <path d="M110.6 55.5v-.2h.2c0 .2 0 .2-.2.2" fill="#211c1d" />
  <path d="M109.4 55l-.2-.3s0-.2.2-.2.3 0 .3.2c0 0 0 .2-.3.2" fill="#3b393d" />
  <path d="M109.4 54.8v-.2h.2c0 .2 0 .2-.2.2" fill="#211c1d" />
  <path
    d="M109.5 53.5s-.2 0-.2-.2c0 0 0-.2.2-.2l.2.3s0 .2-.2.2"
    fill="#3b393d"
  />
  <path d="M109.5 53.4V53v.2" fill="#211c1d" />
  <path
    d="M111.8 53.5s-.2 0-.2-.2c0 0 0-.2.2-.2s.3.2.3.3c0 0 0 .2-.2.2"
    fill="#3b393d"
  />
  <path d="M111.8 53.4V53h.2c0 .2 0 .2-.2.2" fill="#211c1d" />
  <path
    d="M112 54.8c-.2 0-.3 0-.3-.2 0 0 0-.2.2-.2 0 0 .2 0 .2.2 0 0 0 .2-.3.2"
    fill="#3b393d"
  />
  <path d="M112 54.8s-.2 0-.2-.2h.3v.2" fill="#211c1d" />
  <path
    d="M110.7 49.6c-2.5 0-4.4 2-4.4 4.4 0 2.4 2 4.4 4.4 4.4 2.4 0 4.3-2 4.3-4.4 0-2.4-2-4.4-4.3-4.4zm0 10.7c-3.5 0-6.4-2.8-6.4-6.3s3-6.3 6.4-6.3c3.4 0 6.3 2.8 6.3 6.3s-3 6.3-6.3 6.3"
    fill="#3b393d"
  />
  <path
    d="M111 48c0 .3-.4.3-.4 0v-.7h.5v.7M109.8 48c0 .3-.5.4-.5 0l-.2-.6h.6l.2.6M108.6 48.3c0 .3-.4.5-.5.2l-.2-.6c0-.2.5-.4.5-.3l.3.6M107.5 48.8c0 .3-.3.6-.5.3l-.4-.4s.4-.4.5-.3l.5.5M106.5 49.6c.2.2 0 .6-.4.4l-.4-.5s.3-.5.4-.4l.5.6M105.7 50.5c.2.2 0 .6-.3.4l-.6-.4.3-.5.7.5M105 51.6c.3 0 .2.6 0 .5l-.8-.2.2-.5.7.3M104.7 52.7c.3 0 .2.6 0 .5h-.8c-.2 0 0-.6 0-.6h.7M104.6 54c.2 0 .3.5 0 .5h-.7c-.2 0-.2-.5 0-.5h.6M104.7 55.2c.2 0 .4.4 0 .5h-.6v-.4h.7M105 56.3c.3 0 .5.4.2.5l-.6.3c0 .2-.3-.3-.2-.3l.6-.4M105.6 57.4c.2 0 .5.3.3.4l-.7.5-.3-.4.6-.6M106.4 58.4c.2-.2.6 0 .4.3l-.5.5-.4-.3.4-.6M107.3 59c.2 0 .6 0 .5.4l-.4.6-.4-.2.3-.7M108.4 59.7c0-.3.6 0 .5.2l-.3.5h-.5l.2-.8M109.6 60c0-.3.6-.2.5 0v.8h-.5V60M110.8 60c0-.2.5-.2.5 0v.8h-.4l-.2-.7M112 60c0-.3.5-.5.6-.2l.2.7s-.5.2-.5 0l-.2-.5M113.2 59.6c0-.3.3-.5.5-.3l.3.6-.5.2-.3-.6M114.3 59c-.2-.3.2-.6.4-.4l.4.5c.2.2-.2.5-.3.5l-.4-.6M115.2 58c-.2 0 0-.5.3-.3l.6.4c0 .2-.2.6-.3.5l-.5-.4M116 57c-.4 0 0-.5 0-.3l.8.3s-.2.5-.3.4l-.6-.3M116.4 56c-.3 0 0-.6 0-.5l.8.2v.5l-.8-.2M116.7 54.8c-.3 0-.3-.5 0-.5h.7v.6l-.7-.2M116.7 53.6c-.3 0-.3-.5 0-.5h.6s.2.5 0 .5h-.6M116.5 52.4c-.3 0-.4-.4-.2-.5l.7-.4.2.5-.7.4M116 51.2c-.2.2-.5-.3-.2-.4l.6-.4.3.5-.6.2M115.4 50.2c-.2.2-.6-.2-.4-.4l.5-.5.4.4-.6.5M114.5 49.3c-.2.3-.6 0-.4-.3l.5-.5s.5.2.4.3l-.5.5M113.5 48.6c0 .3-.6 0-.5-.2l.3-.6s.5 0 .5.2l-.3.6M112.4 48.2c0 .3-.6.2-.6 0l.2-.8h.5v.8"
    fill="#211c1d"
  />
  <path
    d="M110.7 50c-2.2 0-4 2-4 4 0 2.2 1.8 4 4 4 2 0 4-1.8 4-4-.2-2-2-4-4-4zm0 9c-2.8 0-5-2.2-5-5 0-2.7 2.2-5 5-5 2.7 0 5 2.3 5 5 0 2.8-2.3 5-5 5"
    fill="#3a3a3b"
  />
  <path
    d="M110.7 48.7c-3 0-5.3 2.4-5.3 5.3 0 3 2.3 5.3 5.3 5.3S116 57 116 54s-2.4-5.3-5.3-5.3zm0 10.7c-3 0-5.5-2.4-5.5-5.4 0-3 2.5-5.4 5.5-5.4S116 51 116 54c0 3-2.4 5.4-5.3 5.4"
    fill="#211c1d"
  />
  <path
    d="M116.4 45.6H89.2L86 54h1.4c0-4 3.5-7.5 7.4-7.5 4 0 7.3 3.5 7.3 7.5h1.3c0-4 3.5-7.3 7.4-7.3 4 0 7.5 3.3 7.5 7.3h1l-2.8-8.4"
    fill="#304156"
  />
  <path
    d="M118.4 53.7c0-4-3.7-7.3-7.7-7.3s-7.6 3.4-7.7 7.3h-.6c-.2-4-3.6-7.5-7.6-7.5-4 0-7.6 3.5-7.7 7.5h-.7l3-7.7h27l2.5 7.7h-.4"
    fill="#435569"
  />
  <path
    d="M89.6 46.3h3c-1.6.5-3 1.5-4 2.8l1-2.7zm27.4 3c-1.2-1.6-3-2.7-4.7-3h3.7l1 3zm-14.3 4c-.3-3.2-2.7-6-5.7-7h12c-3.3.7-6 3.6-6.3 7zm-16 0"
    fill="#617286"
  />
  <path
    d="M117.6 45.6l-.5.2 1 3h.6l.3-.6-1-2.4c0-.2-.2-.3-.4-.2"
    fill="#a01b21"
  />
  <path d="M118.2 48.6l-1-2.7.5-.2h.2l.7 2.5v.2h-.5" fill="#cd1e25" />
  <path d="M118.3 48.5l-.8-2.5h.2l.8 2.3-.2.2" fill="#eb1c24" />
  <path
    d="M117 45.7l-.5.2 1 3h.6c.2 0 .2-.3 0-.5l-.7-2.5c0-.2 0-.3-.3-.3"
    fill="#3b393d"
  />
  <path
    d="M117.7 49l-1-3 .4-.2s.2 0 .3.2l.8 2.5c.2.3 0 .3 0 .3l-.3.2"
    fill="#505256"
  />
  <path
    d="M127.2 48.5h-.6v3.3h.6c.2 0 .4-.2.4-.4v-2.6c0-.2-.3-.3-.4-.3"
    fill="#a01b21"
  />
  <path d="M127 51.6l-.2-3h.4v.2l.2 2.6s0 .2-.2.2h-.3" fill="#cd1e25" />
  <path d="M127 51.4v-2.6h.2v2.6h-.2" fill="#eb1c24" />
  <path
    d="M126.6 48.4h-.6V52h.6c.2 0 .2-.2.2-.4v-2.6c0-.2 0-.4-.2-.4"
    fill="#3b393d"
  />
  <path d="M126.2 51.7v-3.2h.4v.3l.2 2.6v.3h-.6" fill="#505256" />
  <path
    d="M63 53.3c0 1 .3 1.5 1 1.5h15.3c1 0 1-.6 1-1.5v-3.8c0-.8 0-1.5-1-1.5H64c-.8 0-1 .5-1 1.5v3.8"
    fill="#211c1d"
  />
  <path
    d="M79.3 54.6c.5 0 .7-.3.7-1.3v-3.8c0-1-.2-1.2-.7-1.2H64c-.5 0-.6 0-.6 1.2v3.8c0 1 .3 1.3.7 1.3h15.3"
    fill="#3b393d"
  />
  <path
    d="M79.5 54c.3 0 .5 0 .5-1V50c0-1-.2-1-.5-1H64c-.6 0-.6 0-.6 1V53c0 1 .2 1 .5 1h15.5"
    fill="#505256"
  />
  <g
    clip-path="url(#clipPath2028)"
    transform="matrix(.125 0 0 -.125 -111.91 150.32)"
  >
    <path
      d="M1508.3 762.7h8.7V820h-8.7v-57.3z"
      fill="url(#radialGradient2032)"
    />
  </g>
  <g
    clip-path="url(#clipPath2048)"
    transform="matrix(.125 0 0 -.125 -111.91 150.32)"
  >
    <path d="M1510 763h5.3v56.8h-5.3v-57z" fill="url(#linearGradient2052)" />
  </g>
  <g
    clip-path="url(#clipPath2064)"
    transform="matrix(.125 0 0 -.125 -111.91 150.32)"
  >
    <path
      d="M1419.4 762.6h8.7V820h-8.6v-57.4z"
      fill="url(#radialGradient2068)"
    />
  </g>
  <g
    clip-path="url(#clipPath2084)"
    transform="matrix(.125 0 0 -.125 -111.91 150.32)"
  >
    <path d="M1421 762.8h5.4v57h-5.3v-57z" fill="url(#linearGradient2088)" />
  </g>
  <path d="M68.5 49.6V49H70v.6c0 .3-.3.5-.7.5-.4 0-.8 0-.8-.4" fill="#353335" />
  <path
    d="M70 49c0 .4-.3.7-.7.7-.4 0-.8-.3-.8-.6 0-.2.4-.5.8-.5s.8.3.8.6"
    fill="#302b2c"
  />
  <path
    d="M70 49c0 .4-.3.6-.7.6-.4 0-.7-.2-.7-.5 0-.2.3-.4.7-.4.4 0 .7.2.7.5"
    fill="#3c3a3d"
  />
  <path d="M68.4 49v.3H70V49h-1.5" fill="#353335" />
  <path
    d="M37.2 35C35.7 37.4 34 43 34 43c.2 0 .6-.2 1-1 1-1.6 2.2-5 2.6-6.5 0-.4-.2-.6-.4-.8"
    fill="#3b393d"
  />
  <path
    d="M37 35c-1.2 2.5-3 7.4-3 8 .2 0 .6-.4 1-1 .8-1.5 2-5 2.4-6.3 0-.2 0-.5-.3-.6"
    fill="#505256"
  />
  <path
    d="M34.8 42c.8-1.5 2-5 2.5-6.4 0 0 0-.3-.3-.4-1.2 2.3-2.7 6.6-3 7.7l.8-1"
    fill="#69788b"
  />
  <path
    d="M50.2 34.5c0 .2-.4.3-.6.2l-1.5-1s-.2-.3 0-.5c0-.3.4-.3.6-.2l1.4.8c.3.2.3.4.2.7"
    fill="#3b393d"
  />
  <path
    d="M49.8 34.6h-.2l-1.4-1c-.2-.2 0-.3 0-.4h.2l1.6.8v.4s0 .2-.2.2"
    fill="#505256"
  />
  <path d="M49.8 34.4l-1.5-.8v-.3h.2l1.4.8v.2c0 .2-.2.2-.2.2" fill="#65686d" />
  <path
    d="M50.3 36.2c-.2.2-.5.3-.7.2l-1.4-1c-.2 0-.3-.3-.2-.5.2-.4.5-.4.7-.3l1.4.8c.3.2.4.4.3.7"
    fill="#3b393d"
  />
  <path
    d="M50 36.3h-.3l-1.4-1H48c0-.2 0-.3.2-.4 0-.2 0-.2.3-.2l1.5 1h.2v.3c0 .2-.2.3-.3.3"
    fill="#505256"
  />
  <path d="M50 36h-.2l-1.5-.7V35h.2l1.5.8v.2" fill="#65686d" />
  <path
    d="M50.3 38s-.4.2-.6 0l-1.5-.8c-.2 0-.3-.4 0-.6 0-.3.3-.3.5-.2l1.4.8c.4.2.4.5.3.7"
    fill="#3b393d"
  />
  <path
    d="M50 38h-.3l-1.4-1c-.2-.2 0-.3 0-.3 0-.2 0-.2.2-.2l1.6 1h.2v.3l-.3.2"
    fill="#505256"
  />
  <path d="M50 37.8h-.2l-1.4-.8v-.3h.2l1.4.8v.2" fill="#65686d" />
  <path
    d="M33 52c.4 1 1.7 1.6 2.5 1.8h5.3c.6 0 1.8-5.8 1.8-5.8H33l-.3.3c0 1.4 0 2.8.4 3.7"
    fill="#3d4f64"
  />
  <path d="M35.2 39.3L34 43l.8-1 1.3-2.8h-.8" fill="#526377" />
  <path d="M32.7 48.3v.3h9.7l.2-.6H33l-.3.3" fill="#536679" />
  <path
    d="M38 39.6l-1 2.8h2.2c.3 0 .6-.3 1-.5l1.2-.6 4.8-.5v-2.5s-8 .8-8.2 1"
    fill="#526377"
  />
  <path d="M41 37l2 3.3-2-3.2" fill="#a3a5a7" />
  <path
    d="M41 37c0 .4.2.7.4 1 0 .2.3.5.5.8 0 .2.3.5.5.8l.6.7-.4-.8-.5-.8c0-.3-.3-.6-.5-.8l-.6-1M42.5 36.6l2 3.3-2-3.4"
    fill="#a3a5a7"
  />
  <path
    d="M42.5 36.6c0 .3.3.6.4 1 0 .2.3.4.5.7 0 .3.3.5.5.8l.6 1c0-.4-.3-.7-.4-1l-.6-.8-.5-.8c0-.3-.3-.5-.5-.8"
    fill="#a3a5a7"
  />
  <path
    d="M47.6 34.2c-.8 0-7.4.2-8.6 1.2-1 1-3 6.4-3 7.8-.2 1-.2 4-.2 4.4h6c.3-.4 1.6-2.7 5.6-3.3.3 0 .4-5.2.2-10zm-12 13.5c0-.2 0-3.4.2-4.5.2-1.4 2.2-7 3-8 1.4-1 8.5-1.2 8.8-1.2l.2 5.2c0 5.2-.3 5.2-.4 5.3-4.2.5-5.4 3-5.4 3.2h-6.4"
    fill="#c2911a"
  />
  <path
    d="M36.2 35.6c.2 0 .4 0 .5.5.2.8.2 2.4 0 3.5 0 .4 0 .5-.4.5-.3-.2-.3-1-.3-2.3v-2h.2"
    fill="#3b393d"
  />
  <path
    d="M36 35.5c-.4 0-.5 0-.6.5v3.5c0 .4.2.4.5.5h.4c.2 0 0-.4-.2-2.3v-2c0-.2-.2-.2-.3-.2"
    fill="#505256"
  />
  <path
    d="M36.4 40.8c0-.2 0-.4-.2-.4s-.4 0-.4.2 0 .4.2.4.4 0 .4-.2"
    fill="#65686d"
  />
  <path
    d="M36 41c.2 0 .3 0 .4-.2 0-.2 0-.3-.2-.4-.2 0-.3 0-.4.2 0 .2 0 .3.2.4"
    fill="#a3a5a7"
  />
  <path
    d="M38.3 35c0-.2 0-.3-.2-.4l-.2.2c0 .2 0 .3.2.3.2.2.3 0 .3 0"
    fill="#65686d"
  />
  <path d="M38 35h.3c0-.2 0-.3-.2-.3v.4" fill="#a3a5a7" />
  <path
    d="M38 34.7l.2.2c-1-.2-2 0-2 .5l-.6 4c0 .3 0 1 .6 1v.2c-.8 0-1-.8-.8-1.3 0-1 .3-3 .5-4 0-.8 1-1 2-.7"
    fill="#babbbc"
  />
  <path
    d="M38 34.8h.2c-1 0-2 0-2.2.6 0 1-.4 3-.5 4 0 .4 0 1 .6 1.2h.2c0 .2 0 0 0 0-.8 0-.8-.8-.8-1 0-1.2.4-3.2.5-4.2 0-.6 1-1 2-.6"
    fill="#e8e8e8"
  />
  <path d="M33.7 53c.5.4 1.2.7 1.7.7V48h-1.7v5" fill="#536679" />
  <path d="M33.8 48H33l-.3.3c0 1.4 0 2.8.4 3.7l.8 1v-5" fill="#617289" />
  <path
    d="M34.2 50c0 .7 0 1-.3 1s-.5-.3-.5-1c0-.4.2-1 .4-1l.2 1"
    fill="#3b393d"
  />
  <path
    d="M33.8 51s-.2-.3-.2-1c0-.5 0-.8.2-.8 0 0 .3.3.3 1 0 .5 0 .8-.2.8"
    fill="#a0a2a5"
  />
  <path
    d="M33.8 51c0-.2-.2-.4-.2-1 0-.3 0-.6.2-.7 0 0 .2.3.2.8 0 .6 0 .8-.2 1"
    fill="#cdd1d5"
  />
  <path
    d="M39.7 52.4c0 .2 0 .3-.5.3h-2.5c-.4 0-.5 0-.5-.3v-1s0-.2.5-.2h2.5c.4 0 .5 0 .5.3v1"
    fill="#1b293c"
  />
  <path
    d="M36.7 52.8c-.5 0-.6-.3-.6-.4v-1s.2-.3.7-.3h2.5c.5 0 .6.4.6.5v1s0 .3-.6.3h-2.5"
    fill="#2a3a4f"
  />
  <path
    d="M36.7 52.6c-.2 0-.4 0-.4-.2v-1h3.3v1c0 .2-.2.2-.4.2h-2.5"
    fill="#1b293c"
  />
  <path
    d="M36.5 52.2l-.3.2c0 .2 0 .3.5.3h2.5c.4 0 .5 0 .5-.3l-.3-.2h-3"
    fill="#26354a"
  />
  <path
    d="M39.6 52.4c0 .2-.2.2-.4.2h-2.5c-.2 0-.4 0-.4-.2v-1h3.3v1zm-.4-1.2h-2.5c-.4 0-.5 0-.5.3v1s0 .2.5.2h2.5c.4 0 .5 0 .5-.3v-1s0-.2-.5-.2"
    fill="#1b293c"
  />
  <path
    d="M41.7 54c0-3.8 3.5-7.3 7.4-7.3 4 0 7.6 3.5 7.6 7.4 0 0 1 .4 1 0 .8-3-1-6.2-2.8-7.6-2.8-2.5-8.5-2.4-11.3 0-3.6 3-3.3 7.7-3.3 7.7h1.5"
    fill="#2a3c50"
  />
  <path
    d="M57.3 54H57c-.3-4-3.8-7.6-8-7.6-4 0-7.5 3.4-7.6 7.4h-1c0-1 .4-4.8 3.3-7.2 1.3-1 3.4-1.7 5.5-1.7 2.2 0 4.2.5 5.4 1.6 1.4 1.2 3.5 4 2.8 7.3"
    fill="#3b4b60"
  />
  <path
    d="M57 53.6c0-4-3.8-7.5-8-7.5-4 0-7.6 3.5-8 7.5H41c0-1.3.5-4.6 3-6.7 1.3-1 3.3-1.6 5.4-1.6 2 0 4 .6 5.2 1.6 1.3 1 3.3 3.8 2.7 6.8"
    fill="#4c5d74"
  />
  <path d="M57.7 53.7H61v-4.3h-3.3v4.3z" fill="#526377" />
  <path d="M57.7 49.4H61l-.5-3.7H58l-.3 3.7" fill="#657686" />
  <path
    d="M61.8 59.3c-.2-.3-1.5-.5-1.5-.5v-5.2h-2v5.2s-1.2.2-1.4.5c-.2 0 0 .4 0 .4h4.8s0-.3 0-.4"
    fill="#3b393d"
  />
  <path
    d="M57 59.5c.2-.3 1-.5 1.3-.5h.2v-5.2h1.7V59c.7 0 1.4.2 1.5.4H57"
    fill="#505256"
  />
  <path d="M60.7 49.5H58v6.7h2.7v-.5h.6v-2.2h-.6v-4" fill="#e1b310" />
  <path d="M60.5 49.8H58V56h2.5v-.5h.6v-1.7h-.5v-4" fill="#f6d507" />
  <path
    d="M60.5 51.7L58 50v1l2.5 1.6v-1zm0 2v-.4L58 51.6v1l3 2v-.8h-.5zm-2.4 2l.5.3h1.2L58 54.8v1zm0-1.6l2.5 1.8v-.3h.6L58 53v1zm2.5-4L60 50h-1l1.5 1.2v-1"
    fill="#ea1d27"
  />
  <path d="M120 53.7h3.2v-4.3H120v4.3z" fill="#526377" />
  <path d="M120 49.4h3.2l-.5-3.7h-2.3l-.5 3.7" fill="#657686" />
  <path
    d="M124 59.3c-.2-.3-1.5-.5-1.5-.5v-5.2h-2v5.2s-1 .2-1.4.5v.4h5s0-.3 0-.4"
    fill="#3b393d"
  />
  <path
    d="M119.2 59.5c.2-.3 1-.5 1.3-.5h.2v-5.2h1.7V59c.7 0 1.4.2 1.5.4H119"
    fill="#505256"
  />
  <path d="M123 49.5h-3v6.7h3v-.5h.5v-2.2h-.6v-4" fill="#e1b310" />
  <path d="M122.7 49.8h-2.4V56h2.4v-.5h.6v-1.7h-.6v-4" fill="#f6d507" />
  <path
    d="M122.7 51.7l-2.4-1.7v1l2.4 1.6v-1zm0 2v-.4l-2.4-1.7v1l3 2v-.8h-.6zm-2.4 2l.4.3h1.2l-1.7-1.2v1zm0-1.6l2.4 1.8v-.3h.6l-3-2.3v1zm2.4-4l-.4-.2H121l1.7 1.2v-1"
    fill="#ea1d27"
  />
  <path
    d="M44.6 43c0 .2.3.5.8.5s1-.3 1-.6c0-.4-.5-.7-1-.7s-.8.3-.8.6"
    fill="#e7c20d"
  />
  <path
    d="M45.4 42.4c-.4 0-.8.2-.8.5 0 .2.4.4.8.4s.8-.2.8-.5c0-.4-.4-.6-.8-.6zm0 1c-.5 0-1 0-1-.5 0-.4.5-.7 1-.7s1 .3 1 .6-.5.5-1 .5"
    fill="#c2911a"
  />
  <path d="M44.3 43h2.2v-.3h-2s-.2 0-.2.2" fill="#f6db06" />
  <path
    d="M44.5 42.7s-.2 0-.2.2h2.2v-.3h-2zm2 .5h-2c-.2 0-.3 0-.3-.3 0-.2 0-.4.3-.4h2l.2.3s0 .2-.3.2"
    fill="#cea317"
  />
  <path d="M46.6 43c0-.2 0-.3-.2-.3s-.2 0-.2.2h.4" fill="#f6db06" />
  <path
    d="M46.4 42.7s-.2 0-.2.2h.4c0-.2 0-.3-.2-.3zm0 .5s-.3 0-.3-.3c0-.2.3-.3.4-.3 0 0 .3 0 .3.2l-.3.2"
    fill="#cea317"
  />
  <path
    d="M84.3 55.6h-1c-.4 0-1-.4-1-1V53h3v1.6c0 .6-.5 1-1 1zm-1-9.3h1c.5 0 1 .5 1 1V49h-3v-1.7c0-.5.6-1 1-1zm-1 3.5h3V52h-3V50zm2-4h-1c-.8 0-1.5.6-1.5 1.5v7.3c0 1 .7 1.6 1.6 1.6h1c.8 0 1.5-.7 1.5-1.6v-7.3c0-1-.8-1.6-1.7-1.6"
    fill="#233348"
  />
  <path
    d="M83.4 46.2c-.6 0-1 .5-1 1v2h3v-2c0-.5-.5-1-1-1h-1zm-1 6h3v-2.5h-3v2.6zm0 2.4c0 .6.4 1 1 1h1c.5 0 1-.4 1-1v-2h-3v2zm1 1.5c-.8 0-1.5-.6-1.5-1.4v-7.3c0-.8.6-1.5 1.4-1.5h1c.7 0 1.4.7 1.4 1.5v7.3c0 .8-.7 1.5-1.5 1.5h-1"
    fill="#324358"
  />
  <path
    d="M83.4 46c-.7 0-1.2.6-1.2 1.3v2h3.3v-2c0-.7-.5-1.2-1.2-1.2h-1zm-1.2 6.4h3.3v-3h-3.3v3zm0 2.2c0 .7.5 1.2 1.2 1.2h1c.6 0 1-.5 1-1.2v-2h-3.2v2zm1.2 1.4c-.8 0-1.4-.6-1.4-1.4v-7.3c0-.8.6-1.4 1.4-1.4h1c.7 0 1.3.5 1.3 1.3v7.3c0 .8-.6 1.4-1.4 1.4h-1"
    fill="#445569"
  />
  <path
    d="M33.8 44.8H35s.2 0 0 .7c0 .2 0 .3-.2.5s-.4.4-.4 1-.5.7-.6.7V45 45"
    fill="#3b393d"
  />
  <path
    d="M33.7 47.6V45l1.3-.2s0 0 0 .6c0 .5-.6.6-.7 1.5 0 .5-.4.6-.6.6"
    fill="#d0d1d0"
  />
  <path d="M35 45.5c-.6 0-1 0-1.3.2V45H35v.4" fill="#c0c1c0" />
  <path d="M33.8 45.6h1v-.3-.3h-1v.6" fill="#e1e1e1" />
  <path d="M33.8 45.5h1v-.2-.3l-1 .2v.3" fill="#f1f1f2" />
  <path d="M33.7 46.5v-.7h1l-.4.7h-.6" fill="#c0c1c0" />
  <path d="M34.3 46.4c0-.3.2-.5.3-.6h-1v.6h.7" fill="#e1e1e1" />
  <path d="M34.2 46.3l.2-.4h-.6v.3h.4" fill="#f1f1f2" />
  <path d="M33.7 46.5v1c.2 0 .5 0 .6-.6v-.5h-.6" fill="#a11b21" />
  <path d="M34.3 46.6v.3c0 .4-.4.5-.5.5v-1h.5" fill="#e8441e" />
  <path d="M33.8 47.4s.3-.2.4-.5v-.3h-.4v.7" fill="#f57815" />
  <path d="M33.8 47.3s.3-.2.3-.5h-.3v.5" fill="#f8a40f" />
</svg>
